<svg id="Artwork" xmlns="http://www.w3.org/2000/svg" viewBox="0 0 720 720"><defs><style>.cls-1{fill-rule:evenodd;}</style></defs><path class="cls-1" d="M253,555.8a8.78,8.78,0,0,0-.61,3.58,9.26,9.26,0,0,0,6.79,8.51H455.87a9.29,9.29,0,0,0,6.81-8.51,8.51,8.51,0,0,0-3.05-6.9c-2.18-2-4.86-4.13-6.82-5.67a12.92,12.92,0,0,1,.88-1.42c5.77-7.1,9-11.91,6.27-21.78-2.2-8-17.55-14.74-28.12-33.37a73.18,73.18,0,0,1-3.94-6.88,60,60,0,0,1-2.37-6c-.09-.24-.13-.46-.19-.67h2.33a9.22,9.22,0,0,0,0-18.44h-1.24a9.52,9.52,0,0,1,.07-1.42c1.42-57,43.08-76.25,47.5-84.48.76-1.41.7-5.51.09-11.42l.17-23.09a171.49,171.49,0,0,0-19-79.67h0a171.58,171.58,0,0,0-58.47-65L380.2,182.2c0-27.88-31.37-30.09-31.37-30.09s5.67,22.32,1.63,22c-12.12-.88-38.43-.7-57.25,14.53-.82.66,3.83,9.22,6.25,13.52-7.76,6.55-19.21,17.25-19.57,23.59a68.2,68.2,0,0,0,1.12,15c-4.54,8.78-8.81,17.52-11.45,24.12-8,20-23.22,24.74-24.12,44.26-.18,4.55,16.4,18.44,16.4,18.44s4.9,5.82,7.65,5.15a64.84,64.84,0,0,1,8.51-1.63,4.61,4.61,0,0,0,3.92-2.24l3.26,3.87c3.27,3.89,21.28-7.09,20.14-14.45s4.25-13.71,4.25-13.71L324.62,292c0,2.05,0,3.73-.08,4.85-.34,9.39-.71,19.19-1.09,28.54-.41,7.69-1,19.06-1.66,31.06-21.94,23.32-44,49.59-43.63,77.86a74.84,74.84,0,0,0,5.58,24.67,9.18,9.18,0,0,0,3.6,17.64h2.33a2.5,2.5,0,0,1-.2.67,54.8,54.8,0,0,1-2.37,6,75.37,75.37,0,0,1-3.93,6.88c-10.59,18.63-25.92,25.41-28.14,33.37-2.72,9.93.52,14.74,6.28,21.78a14.73,14.73,0,0,1,.89,1.42c-2,1.54-4.65,3.71-6.84,5.67A8.79,8.79,0,0,0,253,555.8Zm56.38-323.4c-1.63,1.86-3,3.54-4.54,5-3.21,3-5.25,3.66-7.17.72a2.37,2.37,0,0,1-.37-1.42,3.27,3.27,0,0,1,1.81-2.51c3.7-1.62,6.25-1.58,10-2.24a.28.28,0,0,1,.31.25.33.33,0,0,1,0,.19Z"/></svg>