<svg id="Artwork" xmlns="http://www.w3.org/2000/svg" viewBox="0 0 720 720"><defs><style>.cls-1{fill-rule:evenodd;}</style></defs><path class="cls-1" d="M438.36,503.18a7.27,7.27,0,0,0-2-2.71c-1.78-1.59-4-3.35-5.57-4.61a11.56,11.56,0,0,1,.73-1.14c4.69-5.67,7.32-9.69,5.09-17.72-1.79-6.47-14.19-12-22.87-27.14a61.55,61.55,0,0,1-3.19-5.59,42.39,42.39,0,0,1-1.93-4.91,5,5,0,0,1-.16-.55h2a7.48,7.48,0,1,0,.65-14.94h-1.88c-5.39-5.91-14-18.95-17.84-38.3-.66-3.38-1.42-13.06-2.15-24.48a24.87,24.87,0,0,1,2.39-.81c6.52-1.87,4.35-5.44,4.35-5.44s17-1.71,15.81-9.16c-.31-7.46-12.1-9.47-12.1-9.47s2.84-7.32-12.38-9c-.17-3-.32-5.85-.46-8.34,2.36-1.14,4.59-2.76,4.5-4.39-.16-3-4.81-2.32-3.87-4.35a27.88,27.88,0,0,0,1.42-5.05,53.42,53.42,0,1,0-57.7,0,27.07,27.07,0,0,0,1.41,5.05c.94,2-3.71,1.42-3.87,4.35-.08,1.63,2.14,3.25,4.5,4.39-.14,2.49-.29,5.3-.46,8.34-15.23,1.69-12.38,9-12.38,9s-11.79,2-12.09,9.47c-1.25,7.45,15.82,9.16,15.82,9.16s-2.19,3.57,4.34,5.44a23.79,23.79,0,0,1,2.38.81c-.72,11.42-1.48,21.1-2.15,24.48-3.82,19.33-12.44,32.37-17.84,38.3h-1.23a7.48,7.48,0,0,0-.65,14.94h2.54a2.22,2.22,0,0,1-.14.55,47.31,47.31,0,0,1-1.95,4.91,59.26,59.26,0,0,1-3.19,5.59c-8.6,15.16-21.08,20.67-22.87,27.14-2.23,8,.4,12,5.09,17.72a11.56,11.56,0,0,1,.73,1.14c-1.61,1.26-3.79,3-5.57,4.61a7.27,7.27,0,0,0-2,2.71,7.06,7.06,0,0,0-.49,2.91,7.68,7.68,0,0,0,7.8,7.22h142.1a7.68,7.68,0,0,0,7.8-7.22A7.06,7.06,0,0,0,438.36,503.18Z"/></svg>