<svg id="Artwork" xmlns="http://www.w3.org/2000/svg" viewBox="0 0 720 720"><defs><style>.cls-1{fill:#fff;fill-rule:evenodd;}</style></defs><path class="cls-1" d="M258.89,595.92l-.49-.13a12.45,12.45,0,0,1-9.08-11.45,11.7,11.7,0,0,1,4.14-9.39c1.38-1.24,2.9-2.51,4.23-3.6-5.21-6.58-8.44-12.43-5.53-22.83,1.23-4.45,5.13-8,10.06-12.54,5.45-5,12.24-11.22,17.64-20.71.46-.82.94-1.6,1.38-2.39a31.83,31.83,0,0,0,2.24-4c.35-.77.62-1.38.84-2a12.43,12.43,0,0,1,2.56-24.53h1.21a79.23,79.23,0,0,0,24.86-43c1.59-8,3.7-47.94,5-71.8.22-4.14.43-8,.59-11.18s.25-6.05.36-9.15a6.78,6.78,0,0,1-3.09-3.46.54.54,0,0,1,0-.18c-3.63-.68-9.21-2.24-11.81-5.62a7.09,7.09,0,0,1-1.38-5.37c.36-5.66,5.64-8.84,10.1-10.26a7,7,0,0,1,.74-2,11.07,11.07,0,0,1,6.44-4.92c0-6.24.12-13.7.18-21-14.13-12.51-24.24-36.35-24.24-57.49,0-21.46,11.05-48.77,28.16-69.58l4.31-5.25L339,203.45V152.36l1.38-1a78.12,78.12,0,0,1,7-4.87,15,15,0,1,1,26.42-.81C404,162.13,424.85,206,424.85,237c0,21.14-10.11,45-24.23,57.49,0,7.37.12,14.95.18,21.23a10.49,10.49,0,0,1,5.78,4.77,7.57,7.57,0,0,1,.68,1.92c4.46,1.38,9.73,4.59,10.09,10.26A7.09,7.09,0,0,1,416,338c-2.59,3.38-8.16,4.94-11.79,5.62a6.48,6.48,0,0,1-2.46,3.19c.13,3.24.25,6.47.38,9.66s.37,6.91.59,11.15c1.27,23.87,3.38,63.83,5,71.8a79.16,79.16,0,0,0,24.92,43h1.22A12.43,12.43,0,0,1,436.34,507c.23.55.51,1.2.86,2a32.61,32.61,0,0,0,2.23,4,26.78,26.78,0,0,1,1.38,2.38c5.4,9.5,12.2,15.72,17.65,20.71,4.93,4.51,8.82,8.09,10.05,12.54,2.88,10.37-.34,16.25-5.52,22.82,1.38,1.09,2.85,2.36,4.23,3.61a12,12,0,0,1,3.27,4.54,12.17,12.17,0,0,1,.84,4.85,12.42,12.42,0,0,1-9.1,11.44l-.47.14Z"/><path d="M360.19,127.43a11.5,11.5,0,0,1,8.28,19.43c31,14.25,52.67,59.06,52.67,90,0,19.88-9.53,43.79-24.25,55.9,0,8.89.14,18.2.22,25.35,8.29,2.09,6.42,6.91,6.42,6.91s9.86,1.68,10.12,7.91c1,6.24-13.24,7.66-13.24,7.66s1.55,2.57-2.55,4.15c.15,4,.3,7.89.45,11.76,1.2,21.82,3.73,73.88,5.62,83.49a82.69,82.69,0,0,0,27,45.81h2.5a9,9,0,0,1,0,18H431.2a2.48,2.48,0,0,0,.18.67,59.31,59.31,0,0,0,2.32,5.88,72.81,72.81,0,0,0,3.83,6.7c10.29,18.13,25.23,24.73,27.37,32.47,2.65,9.67-.49,14.34-6.11,21.2a12.16,12.16,0,0,0-.85,1.38c1.92,1.51,4.51,3.62,6.64,5.52a8.26,8.26,0,0,1,3,6.72,9,9,0,0,1-6.63,8.28H259.32a9,9,0,0,1-6.63-8.28,8.77,8.77,0,0,1,.59-3.48,8.67,8.67,0,0,1,2.38-3.24c2.11-1.9,4.72-4,6.64-5.52a12.24,12.24,0,0,0-.86-1.38c-5.62-6.9-8.75-11.59-6.1-21.2,2.14-7.74,17.08-14.34,27.37-32.47a72.71,72.71,0,0,0,3.82-6.7,54.79,54.79,0,0,0,2.32-5.88,3.16,3.16,0,0,1,.18-.67h-2.18a9,9,0,1,1,0-18h2.5a82.9,82.9,0,0,0,27-45.8c1.89-9.67,4.41-61.67,5.62-83.49.15-3.78.3-7.64.44-11.51-5-1.59-3.26-4.43-3.26-4.43s-14.29-1.38-13.24-7.67c.25-6.23,10.12-7.91,10.12-7.91s-2-5,7.14-7c.08-7.13.15-16.37.2-25.19-14.7-12.11-24.23-36-24.23-55.9,0-21,11.05-47.6,27.37-67.38l15.78,61.07V153.94a72.89,72.89,0,0,1,10-6.58,11.51,11.51,0,0,1,7.85-19.93m0-6.9a18.4,18.4,0,0,0-17.42,24.53c-1.6,1.08-3.19,2.23-4.75,3.44l-2.65,2.07V176.3l-2.19-8.45-3.4-13.15-8.62,10.5c-17.57,21.37-29,49.54-29,71.8,0,21.82,9.83,45.57,24.22,59,0,5.91-.1,11.88-.14,17.15a13.26,13.26,0,0,0-6.06,5.6,9,9,0,0,0-.47,1c-5,2-10.29,5.95-10.76,12.59a10.63,10.63,0,0,0,2.15,7.81c2.85,3.71,8.07,5.62,12.18,6.56a10,10,0,0,0,2,2.32c-.1,2.44-.19,4.88-.29,7.29-.16,3.14-.37,6.9-.59,11.13-1.18,22.21-3.37,63.51-4.9,71.33A75.62,75.62,0,0,1,286.63,479,15.85,15.85,0,0,0,279.49,509c-.39.7-.84,1.38-1.38,2.19s-1,1.61-1.51,2.49c-5.12,9-11.69,15.05-17,19.9s-9.55,8.75-11,14.15c-2.88,10.4-.33,16.93,4.14,23.21-.61.51-1.22,1.05-1.8,1.58a15.2,15.2,0,0,0-5.26,12.08,16,16,0,0,0,11.56,14.64l1,.27H461.8l1-.27a16,16,0,0,0,11.56-14.64,15.2,15.2,0,0,0-5.26-12.08c-.58-.53-1.19-1.07-1.8-1.58,4.49-6.28,7-12.81,4.14-23.21-1.49-5.4-5.92-9.46-11-14.15s-11.85-10.87-17-19.9c-.51-.88-1-1.7-1.51-2.49s-.92-1.49-1.31-2.19A15.85,15.85,0,0,0,433.44,479a75.59,75.59,0,0,1-22.66-40.36c-1.53-7.73-3.73-49.12-4.9-71.33-.22-4.15-.43-8-.6-11.13-.11-2.61-.22-5.27-.31-7.94a10.47,10.47,0,0,0,1.38-1.67c4.14-1,9.32-2.85,12.16-6.56a10.6,10.6,0,0,0,2.16-7.81c-.47-6.64-5.76-10.57-10.76-12.59-.11-.28-.25-.55-.39-.83a12.77,12.77,0,0,0-5.41-5.38c0-5.36-.11-11.48-.15-17.53,14.39-13.49,24.22-37.18,24.22-59,0-16.78-5.68-36.69-15.56-54.63C403.28,165.32,391.16,152,378,144a18.45,18.45,0,0,0-17.71-23.48Z"/></svg>