<svg id="Artwork" xmlns="http://www.w3.org/2000/svg" viewBox="0 0 720 720"><defs><style>.cls-1{fill:#fff;}</style></defs><path class="cls-1" d="M258.73,639.88l-.48-.14a12.43,12.43,0,0,1-9.09-11.45,11.64,11.64,0,0,1,4.14-9.39c1.38-1.24,2.92-2.51,4.24-3.6-5.22-6.57-8.44-12.43-5.52-22.83,1.23-4.44,5.12-8,10.06-12.54,5.46-5,12.24-11.22,17.64-20.71.45-.81.94-1.6,1.38-2.37a35.7,35.7,0,0,0,2.24-4l.84-2a12.43,12.43,0,0,1,2.55-24.53h1.2a79.1,79.1,0,0,0,24.94-43c1.58-8,3.7-47.95,5-71.81.23-4.22.43-8,.61-11.18.36-9.05.71-18.57,1.05-27.72.18-7.49.38-39.65.48-55.08a22.62,22.62,0,0,0-4.14-1.61c-4.45-1.38-7.29-3.47-8.44-6.37a7.54,7.54,0,0,1-.47-1.81c-5.37-.94-15.19-3.33-19.44-8.85a9.93,9.93,0,0,1-2.05-7.59c.53-10,11.05-14.34,16.48-15.91a11,11,0,0,1,.94-3.72,7.87,7.87,0,0,1-.9-13.8L279.19,190.8a9.2,9.2,0,0,1,5.53-11.41l34-14.07a5.57,5.57,0,0,1-.28-2.59c.5-3.59,4.14-6.2,12-8.29a12.42,12.42,0,0,1-3.47-7.66,11.53,11.53,0,0,1,2.39-7.46H323a9.76,9.76,0,0,1-10.1-9.37V111a9.78,9.78,0,0,1,10.1-9.39h8.78l-4.83-6.9a8.73,8.73,0,0,1-.61-9.21,10.11,10.11,0,0,1,9.07-5.29H386a10.11,10.11,0,0,1,9.08,5.29,8.8,8.8,0,0,1-.6,9.21l-4.85,6.9h8.78A9.78,9.78,0,0,1,408.5,111v18.79a9.76,9.76,0,0,1-10.1,9.38H392a11.52,11.52,0,0,1,2.38,7.46,12.35,12.35,0,0,1-3.46,7.66c7.83,2.13,11.5,4.74,12,8.29a5.44,5.44,0,0,1-.28,2.59l34,14.07a9.2,9.2,0,0,1,5.52,11.41l-22.75,67.07a7.85,7.85,0,0,1-.89,13.8,11.19,11.19,0,0,1,.93,3.72c5.4,1.57,16,5.92,16.49,15.91a10,10,0,0,1-2.06,7.59c-4.24,5.52-14.07,7.91-19.44,8.85a7.54,7.54,0,0,1-.47,1.81c-1.15,2.9-4,5.05-8.44,6.37a15.9,15.9,0,0,0-4.89,2.08l.31,3.16h-.78c.1,14.77.29,44.41.47,51.65.33,9.1.69,18.63,1.05,27.71.18,3.12.37,6.91.6,11.12,1.27,23.89,3.39,63.85,5,71.8a79.11,79.11,0,0,0,24.93,43h1.21A12.43,12.43,0,0,1,436,550.88l.84,2a32.56,32.56,0,0,0,2.24,4c.48.78,1,1.57,1.38,2.39,5.4,9.5,12.18,15.72,17.63,20.71,4.95,4.51,8.84,8.09,10.07,12.54,2.86,10.37-.36,16.25-5.52,22.82,1.38,1.09,2.87,2.38,4.24,3.61a11.61,11.61,0,0,1,4.14,9.39,12.42,12.42,0,0,1-9.09,11.44l-.48.14Z"/><path d="M386,83.66c5.21,0,8.4,5.12,5.64,9.07L383,105.16h15.38A6.32,6.32,0,0,1,405,111.1v18.79a6.32,6.32,0,0,1-6.64,5.94H383c17.95,11.43,0,20.32,0,20.32,25.57,4.77,13.8,10.48,13.8,10.48l38.46,15.94a5.74,5.74,0,0,1,3.56,7.11L414.94,260.1h.24a4.43,4.43,0,1,1,.49,8.85H412v.23c5.68,3.89,3.8,8.86,3.8,8.86s16.34,2.9,16.78,13.62c1.71,10.7-21.93,13.16-21.93,13.16s3,5.13-6,7.81c-6.91,2.06-7.53,4.14-7.43,4.94h-.37c.09,16,.3,47.6.48,55.24.33,9.14.69,18.68,1.06,27.77,1.19,21.81,3.72,73.87,5.62,83.48a82.73,82.73,0,0,0,27,45.82h2.5a9,9,0,0,1,0,18h-2.27c.07.22.11.43.2.66a50.23,50.23,0,0,0,2.3,5.89,75,75,0,0,0,3.83,6.69c10.3,18.13,25.22,24.73,27.38,32.48,2.65,9.67-.5,14.33-6.11,21.2a12.32,12.32,0,0,0-.87,1.38c1.92,1.5,4.53,3.61,6.66,5.52a8.26,8.26,0,0,1,3,6.71,9.07,9.07,0,0,1-6.62,8.29H259.38a9.07,9.07,0,0,1-6.63-8.29,8.27,8.27,0,0,1,3-6.71c2.13-1.91,4.73-4,6.65-5.52a12.32,12.32,0,0,0-.87-1.38c-5.62-6.91-8.75-11.59-6.1-21.2,2.16-7.75,17.08-14.35,27.38-32.48a75,75,0,0,0,3.83-6.69,54,54,0,0,0,2.3-5.89c.09-.23.13-.44.2-.66h-2.27a9,9,0,0,1,0-18h2.5A82.77,82.77,0,0,0,316.27,484c1.9-9.66,4.43-61.66,5.62-83.48.37-9.09.72-18.63,1.06-27.77.18-7.86.4-41.66.5-56.93-.91-.93-2.76-2.06-6.63-3.19-9-2.68-6-7.82-6-7.82s-23.65-2.46-21.93-13.16c.43-10.71,16.77-13.61,16.77-13.61s-1.88-5,3.79-8.87v-.22h-3.24a4.43,4.43,0,0,1,0-8.85h.23l-23.89-70.42a5.78,5.78,0,0,1,3.57-7.11l38.45-15.94s-11.72-5.72,13.81-10.48c0,0-17.95-8.89,0-20.33H323a6.32,6.32,0,0,1-6.64-5.93V111A6.32,6.32,0,0,1,323,105.1h15.38l-8.6-12.42c-2.76-4,.43-9.08,5.63-9.08H386m0-6.9H335.37a13.53,13.53,0,0,0-12.14,7.14,12.18,12.18,0,0,0,.83,12.79l1.06,1.51H323A13.22,13.22,0,0,0,309.41,111v18.79A13.22,13.22,0,0,0,323,142.62h.93a14.12,14.12,0,0,0,1.07,9.75c-5.38,2-9.33,5-10,9.76a3.39,3.39,0,0,1-.08.9l-31.51,13.06a12.59,12.59,0,0,0-7.46,15.7l22,64.9a11.33,11.33,0,0,0,.39,16l.15.13C291,275.53,282.59,281.12,282,291a13.31,13.31,0,0,0,2.76,10c4.39,5.73,13.28,8.47,19.4,9.75v.08c1.56,3.93,5.15,6.76,10.67,8.41a17.24,17.24,0,0,1,1.67.55c-.09,16.09-.3,45.48-.47,52.75s-.64,17.59-1,27.62c-.17,3.14-.37,6.9-.59,11.11-1.19,22.23-3.38,63.6-4.9,71.35a75.51,75.51,0,0,1-22.88,40.25,15.84,15.84,0,0,0-7.13,29.94c-.4.7-.85,1.38-1.38,2.19s-1,1.6-1.49,2.49c-5.14,9-11.69,15-17,19.9s-9.57,8.75-11,14.15c-2.87,10.4-.33,16.93,4.15,23.21-.63.51-1.23,1-1.81,1.58a15.16,15.16,0,0,0-5.25,12.08A15.92,15.92,0,0,0,257.24,643l1,.27H461.8l1-.27a15.94,15.94,0,0,0,11.56-14.64,15.16,15.16,0,0,0-5.25-12.08c-.59-.53-1.2-1.07-1.81-1.58,4.51-6.28,7.05-12.81,4.15-23.21-1.48-5.4-5.91-9.46-11.05-14.15s-11.83-10.87-17-19.9c-.5-.89-1-1.7-1.49-2.49s-.93-1.49-1.38-2.19a15.84,15.84,0,0,0-7.13-29.94,75.51,75.51,0,0,1-22.77-40.24c-1.52-7.74-3.71-49.11-4.9-71.33-.22-4.14-.41-8-.59-11.13-.4-10-.79-20.59-1.05-27.62-.17-6.74-.35-32.59-.45-48.07h1.16l-.51-4.5c.54-.2,1.26-.45,2.17-.73,5.53-1.64,9.12-4.47,10.68-8.41v-.08c6.13-1.27,15-4,19.33-9.75a13.3,13.3,0,0,0,2.76-10c-.61-9.78-9-15.43-16.47-18.12a11.3,11.3,0,0,0,.71-16l-.18-.18,22-64.9a12.6,12.6,0,0,0-7.46-15.7l-31.34-13v-.9c-.65-4.75-4.58-7.72-10-9.76A14.25,14.25,0,0,0,398,146.9a13.75,13.75,0,0,0-.4-4.14h.93A13.22,13.22,0,0,0,412,129.92V111A13.21,13.21,0,0,0,398.5,98.2h-2.17l1.06-1.52a12.18,12.18,0,0,0,.83-12.79,13.55,13.55,0,0,0-12.14-7.14Z"/></svg>