<svg id="Artwork" xmlns="http://www.w3.org/2000/svg" viewBox="0 0 720 720"><defs><style>.cls-1{fill:#fff;}</style></defs><path class="cls-1" d="M258.9,620.28l-.47-.14a12.49,12.49,0,0,1-9.1-11.44,11.68,11.68,0,0,1,4.15-9.39c1.38-1.23,2.89-2.52,4.22-3.61-5.21-6.57-8.44-12.42-5.52-22.82,1.23-4.45,5.12-8,10.05-12.54,5.52-5,12.25-11.23,17.65-20.71.45-.82.94-1.6,1.38-2.39a33.79,33.79,0,0,0,2.22-4c.35-.78.62-1.38.86-2a12.42,12.42,0,0,1,2.54-24.52h1.21a79.11,79.11,0,0,0,24.93-43c1.59-8,3.7-48,5-71.8.22-4.21.43-8,.59-11.16.38-9,.72-18.57,1.05-27.71.2-7.65.4-40.05.5-55.07a16.32,16.32,0,0,0-4.88-2.07c-4.44-1.38-7.29-3.47-8.43-6.37a7.54,7.54,0,0,1-.47-1.81c-5.37-.94-15.19-3.32-19.44-8.85a10,10,0,0,1-2.06-7.59c.54-10,11-14.34,16.49-15.91a10.48,10.48,0,0,1,1.06-4,11.58,11.58,0,0,1,1.7-2.57,6.41,6.41,0,0,1-2.52-5.1v-2.84a6.48,6.48,0,0,1,6.47-6.46h3.64c-.09-13.91-2.35-42.59-17-70.43l-4.42-4.8a10,10,0,0,1,.43-14l1-1a10,10,0,0,1,14,.13l4.57,4.57a3.11,3.11,0,0,0,2.19.9h1.67a3,3,0,0,0,2.16-.9l5.82-5.81a10,10,0,0,1,7.05-2.93h.29a10,10,0,0,1,4.66,1.15,38.74,38.74,0,0,1,10-13.56,18.55,18.55,0,1,1,31.94,0,38.74,38.74,0,0,1,10,13.56,9.87,9.87,0,0,1,4.64-1.15h.3a10,10,0,0,1,7.06,2.93l5.81,5.81a3,3,0,0,0,2.17.9h1.67a3,3,0,0,0,2.18-.9l4.57-4.57a10,10,0,0,1,14-.13l1,1a10,10,0,0,1,.43,14l-4.42,4.8c-14.62,27.84-16.87,56.54-17,70.43h3.66a6.48,6.48,0,0,1,6.46,6.46v2.84a6.43,6.43,0,0,1-2.51,5.1,12.32,12.32,0,0,1,1.7,2.57,10.66,10.66,0,0,1,1.06,4c5.41,1.57,15.95,5.94,16.49,15.91a10,10,0,0,1-2.06,7.59c-4.24,5.53-14.07,7.91-19.44,8.85a7.54,7.54,0,0,1-.47,1.81c-1.15,2.9-4,5.06-8.44,6.37a18.51,18.51,0,0,0-4.63,1.9c.1,15.32.31,47.64.5,55.24.33,9.1.68,18.62,1.05,27.71.17,3.12.37,6.91.59,11.14,1.28,23.88,3.39,63.84,5,71.81a79.25,79.25,0,0,0,24.85,43h1.22a12.43,12.43,0,0,1,2.55,24.52c.22.57.5,1.2.84,2a31.14,31.14,0,0,0,2.24,4c.48.79,1,1.58,1.38,2.39,5.4,9.5,12.19,15.73,17.65,20.72,4.93,4.51,8.82,8.09,10,12.53,2.87,10.37-.34,16.26-5.52,22.83,1.38,1.09,2.86,2.37,4.22,3.6a11.69,11.69,0,0,1,4.15,9.39A12.43,12.43,0,0,1,462,620.13l-.48.14H258.9Z"/><path d="M360.08,103.24a15.08,15.08,0,0,1,11.17,25.21c5.81,3.75,10.55,10.32,13.38,18.52l1.46-1.46a6.49,6.49,0,0,1,4.61-1.92H391a6.49,6.49,0,0,1,4.61,1.92l5.81,5.81a6.6,6.6,0,0,0,4.61,1.91h1.68a6.56,6.56,0,0,0,4.61-1.91l4.58-4.58a6.53,6.53,0,0,1,9.14-.09l1,1a6.53,6.53,0,0,1,.28,9.13l-4.73,5.13c-16.44,31-17.79,63-17.56,76h7.08a3,3,0,0,1,3,3v2.84a3,3,0,0,1-3,3H406c11.94,3.78,9.1,11.34,9.1,11.34s16.33,2.9,16.76,13.61c1.73,10.7-21.93,13.16-21.93,13.16s3,5.14-6,7.82c-4.65,1.38-6.44,2.76-7.08,3.77.1,15.32.3,48.95.5,56.79.33,9.14.69,18.68,1.05,27.77,1.2,21.82,3.73,73.88,5.62,83.49a82.82,82.82,0,0,0,27,45.81h2.59a9,9,0,0,1,0,18h-2.27a2.58,2.58,0,0,0,.18.67,57,57,0,0,0,2.32,5.88,70.56,70.56,0,0,0,3.83,6.7C448,559.57,462.89,566.15,465,573.91c2.66,9.67-.48,14.34-6.1,21.2a12.24,12.24,0,0,0-.86,1.38c1.92,1.51,4.53,3.62,6.65,5.52a8.8,8.8,0,0,1,2.37,3.23,8.84,8.84,0,0,1-6,11.77H259.45a9,9,0,0,1-6.62-8.29,8.29,8.29,0,0,1,3-6.71c2.13-1.9,4.73-4,6.65-5.52a12.24,12.24,0,0,0-.86-1.38c-5.62-6.9-8.75-11.59-6.1-21.2,2.14-7.74,17.08-14.34,27.37-32.47a72.71,72.71,0,0,0,3.82-6.7,57,57,0,0,0,2.32-5.88,2.55,2.55,0,0,1,.18-.67h-2.26a9,9,0,1,1,0-18h2.49a82.62,82.62,0,0,0,27-45.84c1.89-9.67,4.42-61.67,5.62-83.49.36-9.08.72-18.62,1.05-27.77.19-7.76.4-40.74.5-56.29-.33-1-1.85-2.64-7.35-4.27-9-2.68-6-7.82-6-7.82s-23.64-2.45-21.93-13.15c.44-10.72,16.78-13.62,16.78-13.62s-2.86-7.55,9.1-11.34H308a3,3,0,0,1-3-3v-2.85a3,3,0,0,1,3-3h7.09c.23-12.87-1.12-44.85-17.57-75.94l-4.72-5.14a6.54,6.54,0,0,1,.28-9.13l1-1a6.54,6.54,0,0,1,9.14.09l4.58,4.58a6.57,6.57,0,0,0,4.62,1.91h1.67a6.57,6.57,0,0,0,4.61-1.91l5.82-5.81a6.49,6.49,0,0,1,4.61-1.92h.29a6.52,6.52,0,0,1,4.62,1.92l1.47,1.46c2.76-8.2,7.57-14.77,13.38-18.51a15.09,15.09,0,0,1,11.16-25.22m0-6.9a22,22,0,0,0-20.23,30.6A42.5,42.5,0,0,0,332.38,137a13.2,13.2,0,0,0-2.93-.31h-.29a13.28,13.28,0,0,0-9.5,3.93l-5.7,5.7h-1.39l-4.46-4.46a13.43,13.43,0,0,0-18.8-.19l-1,1a13.49,13.49,0,0,0-.58,18.77l4.14,4.47c13,24.94,15.85,50.53,16.31,65H308a9.92,9.92,0,0,0-9.91,9.92v2.84a9.88,9.88,0,0,0,1.54,5.39c-.13.26-.29.52-.41.8a13.78,13.78,0,0,0-1,2.86c-7.56,2.63-16.22,8.28-16.84,18.25a13.31,13.31,0,0,0,2.76,10c4.39,5.73,13.27,8.47,19.33,9.74v.09c1.56,3.93,5.15,6.76,10.68,8.41,1,.3,1.82.59,2.38.81-.09,15.72-.3,45.57-.48,52.93-.41,11.41-.73,19.94-1,27.62-.18,3.14-.39,6.9-.61,11.13-1.18,22.21-3.37,63.51-4.9,71.33a75.62,75.62,0,0,1-22.87,40.25,15.85,15.85,0,0,0-7.14,29.94c-.39.7-.84,1.38-1.38,2.19s-1,1.61-1.51,2.49c-5.12,9-11.69,15-17,19.9s-9.55,8.75-11,14.15c-2.88,10.4-.33,16.93,4.14,23.21-.61.51-1.22,1-1.8,1.58a15.2,15.2,0,0,0-5.26,12.08,16,16,0,0,0,11.56,14.64l1,.27H461.8l1-.27a16,16,0,0,0,11.56-14.64,15.2,15.2,0,0,0-5.26-12.08c-.58-.53-1.19-1.07-1.8-1.58,4.49-6.28,7-12.81,4.14-23.21-1.49-5.4-5.92-9.46-11-14.15s-11.85-10.87-17-19.9c-.52-.88-1-1.7-1.51-2.5s-.92-1.48-1.38-2.18a15.85,15.85,0,0,0-7.14-29.94A75.61,75.61,0,0,1,410.79,463c-1.53-7.75-3.72-49.12-4.9-71.34-.22-4.14-.43-8-.59-11.13-.42-10.06-.8-20.6-1.05-27.61-.18-7.35-.37-37.06-.48-53,.53-.2,1.24-.45,2.14-.72,5.52-1.64,9.11-4.47,10.67-8.4v-.09c6.12-1.27,15-4,19.33-9.75a13.33,13.33,0,0,0,2.76-10c-.62-9.94-9.29-15.62-16.84-18.26a13.91,13.91,0,0,0-1-2.85c-.12-.28-.27-.54-.41-.81a9.84,9.84,0,0,0,1.57-5.35v-2.85A9.93,9.93,0,0,0,412,230.9h-.14c.45-14.46,3.33-40.05,16.31-65l4.14-4.48a13.5,13.5,0,0,0-.58-18.76l-1-1a13.44,13.44,0,0,0-18.81.19l-4.46,4.46h-1.38l-5.69-5.7a13.33,13.33,0,0,0-9.5-3.94h-.3a13.77,13.77,0,0,0-2.93.32A42.09,42.09,0,0,0,380.22,127,22,22,0,0,0,360,96.36Z"/></svg>