<svg id="Artwork" xmlns="http://www.w3.org/2000/svg" viewBox="0 0 720 720"><defs><style>.cls-1{fill:#fff;fill-rule:evenodd;}</style></defs><path class="cls-1" d="M273.92,546.39a11.93,11.93,0,0,1-12-11.24,11.72,11.72,0,0,1,.79-4.57,11.11,11.11,0,0,1,3.08-4.25c1.19-1.08,2.48-2.17,3.66-3.12-4.73-6-7.6-11.42-5-20.93,1.14-4.15,4.73-7.43,9.28-11.6,5-4.56,11.17-10.24,16.08-18.89.42-.75.87-1.47,1.31-2.2a27.92,27.92,0,0,0,2-3.62c.25-.55.46-1.05.64-1.47a11.63,11.63,0,0,1,2.53-22.9c4-4.76,13.47-17.76,17.7-39.13,1.45-7.29,3.38-43.83,4.54-65.66.21-3.87.39-7.35.55-10.25.1-2.58.24-10.75.38-23.67h-1.25a21.21,21.21,0,0,1-5.81-.85c-3.71-1.06-6.08-2.85-7-5.29a4.27,4.27,0,0,1-.25-.79c-4.42-.77-11.61-2.63-14.84-6.9a8,8,0,0,1-1.64-6.12c.41-6.9,7.14-10.71,12.6-12.33a8.68,8.68,0,0,1,1.38-3.56c2.86-4.34,9.26-6.63,19.56-7a.24.24,0,0,1,0-.12,21.33,21.33,0,0,1-10-5,6.27,6.27,0,0,1-1.93-4.67,5.81,5.81,0,0,1,.42-1.93h-11.4a10.12,10.12,0,0,1-10.1-10.1V194.26a10,10,0,0,1,8.58-10l10.74-1.63a9.89,9.89,0,0,1,1.54-.12,10.09,10.09,0,0,1,10.08,10.09v9.79a1,1,0,0,0,1,1h10.29a1,1,0,0,0,1-1h0v-14a11.27,11.27,0,0,1,7.4-10.55l2.68-1a53.27,53.27,0,0,1,36.3,0l2.68,1a11.23,11.23,0,0,1,7.4,10.55v14a1,1,0,0,0,1,1h10.29a1,1,0,0,0,1-1h0v-9.79a10.09,10.09,0,0,1,10.08-10.09,9.86,9.86,0,0,1,1.53.12l10.74,1.63a10,10,0,0,1,8.58,10v44a10.11,10.11,0,0,1-10.1,10.09H409.4a6,6,0,0,1-1.52,6.6,21.31,21.31,0,0,1-10,5,.28.28,0,0,0,0,.13c10.28.35,16.68,2.65,19.54,7a8.68,8.68,0,0,1,1.38,3.56c5.52,1.62,12.19,5.43,12.6,12.34a8,8,0,0,1-1.65,6.11c-3.22,4.21-10.43,6.08-14.83,6.91-.08.26-.16.53-.25.78-.95,2.43-3.29,4.15-6.91,5.27h-.09a21.23,21.23,0,0,1-5.82.85h-1.2c.15,12.91.28,21.09.39,23.72s.34,6.33.55,10.19c1.15,21.84,3.09,58.37,4.53,65.66,4.23,21.38,13.66,34.37,17.72,39.14a11.64,11.64,0,0,1,2.52,22.93c.18.43.39.93.64,1.48a26.14,26.14,0,0,0,2,3.62c.45.73.89,1.45,1.38,2.19,4.93,8.66,11,14.34,16.08,18.89,4.56,4.15,8.15,7.46,9.3,11.6,2.62,9.52-.25,14.94-5,20.94,1.16,1,2.45,2,3.65,3.12a11,11,0,0,1,3.86,8.82,11.93,11.93,0,0,1-12,11.24Z"/><path d="M360.63,177.1a49.58,49.58,0,0,1,17,3l2.68,1a7.76,7.76,0,0,1,5.12,7.31v14a4.44,4.44,0,0,0,4.43,4.44h10.28a4.43,4.43,0,0,0,4.43-4.44h0v-9.8a6.65,6.65,0,0,1,6.63-6.64,7,7,0,0,1,1,.08L423,187.69a6.65,6.65,0,0,1,5.64,6.57v44a6.65,6.65,0,0,1-6.64,6.64H402.63a8.43,8.43,0,0,1-.38,1c-1,2.13,3.93,1.47,4.14,4.57s-7.68,6.22-9.8,6.22-3.93,6.9.81,6.9c21.43.65,17.83,9.8,17.83,9.8s12.42,2.13,12.76,10c1.38,7.84-16.68,9.66-16.68,9.66s2.29,3.76-4.59,5.72h0a17.38,17.38,0,0,1-4.86.72h-4.68c.11,10.59.28,23.65.41,27.31,1.11,20,3.41,67.58,5.15,76.38,4.15,21.18,13.63,35.44,19.53,41.92h1.38a8.19,8.19,0,0,1,0,16.36h-2.07a2.51,2.51,0,0,0,.16.61,54,54,0,0,0,2.12,5.37,68.71,68.71,0,0,0,3.5,6.13c9.42,16.57,23.09,22.62,25.05,29.72,2.43,8.78-.45,13.12-5.52,19.33-.28.35-.47.76-.79,1.24,1.76,1.38,4.15,3.32,6.09,5.07A7.57,7.57,0,0,1,454.9,535a8.42,8.42,0,0,1-8.55,7.91H273.92a8.44,8.44,0,0,1-8.56-7.91,8,8,0,0,1,.56-3.17,7.75,7.75,0,0,1,2.16-3c1.94-1.75,4.33-3.69,6.08-5.07a13.63,13.63,0,0,0-.79-1.24c-5.13-6.27-8-10.61-5.52-19.33,2-7.1,15.62-13.13,25-29.72a59.92,59.92,0,0,0,3.51-6.13A49.42,49.42,0,0,0,298.5,462l.18-.61H296.6a8.19,8.19,0,0,1,0-16.36H298c5.91-6.48,15.35-20.71,19.54-41.92,1.74-8.8,4-56.42,5.13-76.38.16-3.66.32-16.72.43-27.31h-4.82a17.43,17.43,0,0,1-4.86-.72h0c-6.9-2-4.57-5.72-4.57-5.72s-17.95-1.8-16.68-9.66c.32-7.86,12.76-10,12.76-10s-3.6-9.15,17.83-9.8c4.73,0,2.94-6.9.81-6.9s-10-3.11-9.82-6.22,5.07-2.44,4.15-4.57c-.12-.29-.25-.62-.38-1H299.32a6.64,6.64,0,0,1-6.64-6.64v-44a6.65,6.65,0,0,1,5.64-6.57l10.75-1.63a6.77,6.77,0,0,1,1-.08,6.64,6.64,0,0,1,6.62,6.64v9.8a4.44,4.44,0,0,0,4.44,4.44h10.27a4.43,4.43,0,0,0,4.43-4.44h0v-14a7.8,7.8,0,0,1,5.13-7.31l2.67-1a50,50,0,0,1,17-3m0-6.9a56.85,56.85,0,0,0-19.33,3.39l-2.68,1A14.74,14.74,0,0,0,329,188.38V200h-5.33v-7.33a13.57,13.57,0,0,0-13.53-13.55,15.74,15.74,0,0,0-2.06.16l-10.74,1.64a13.44,13.44,0,0,0-11.5,13.39v44a13.55,13.55,0,0,0,13.54,13.54h7.61a10.13,10.13,0,0,0,2.76,5.53c.29.3.61.59.94.88-5.11,1.38-8.68,3.71-10.85,7a12.08,12.08,0,0,0-1.38,2.76c-6,2.24-12.61,6.81-13.15,14.65a11.6,11.6,0,0,0,2.35,8.56c3.44,4.52,10.07,6.73,15.05,7.79,1.55,3,4.52,5.13,8.84,6.35h0a24.26,24.26,0,0,0,4.46.87c-.13,10.86-.24,17.79-.33,20.21-.17,2.9-.35,6.35-.56,10.19-1.07,20.32-3.08,58.13-4.47,65.17-3.78,19.17-11.85,31.24-16.05,36.48A15.08,15.08,0,0,0,289,466.28c-.27.48-.58,1-.88,1.47s-.93,1.48-1.38,2.3c-4.66,8.18-10.62,13.65-15.43,18.06s-8.86,8.13-10.27,13.23c-2.61,9.44-.33,15.63,3.59,21.28-.43.37-.86.74-1.26,1.11a14.46,14.46,0,0,0-5,11.51,15.41,15.41,0,0,0,15.46,14.58H446.14a15.41,15.41,0,0,0,15.46-14.58,14.46,14.46,0,0,0-5-11.51l-1.26-1.11c3.91-5.65,6.2-11.84,3.59-21.28-1.38-5.1-5.52-8.87-10.29-13.23s-10.77-9.88-15.41-18.06c-.47-.82-.94-1.58-1.38-2.3s-.62-1-.9-1.47a15.08,15.08,0,0,0-5.52-28.08c-4.14-5.24-12.26-17.31-16.06-36.48-1.38-7-3.39-44.86-4.47-65.19-.21-3.82-.39-7.29-.54-10.17-.1-2.42-.22-9.35-.35-20.21a24.3,24.3,0,0,0,4.48-.87h0c4.31-1.23,7.26-3.37,8.79-6.33,5-1.07,11.62-3.28,15.07-7.79a11.6,11.6,0,0,0,2.35-8.56c-.54-7.85-7.14-12.43-13.16-14.65a12.36,12.36,0,0,0-1.38-2.77c-2.16-3.28-5.75-5.6-10.84-7,.33-.29.65-.58.94-.88a10,10,0,0,0,2.76-5.52h8.79a13.57,13.57,0,0,0,13.55-13.55v-44a13.45,13.45,0,0,0-11.5-13.39l-10.64-1.63a14,14,0,0,0-2.05-.15,13.56,13.56,0,0,0-13.54,13.54V200H392.3V188.37a14.71,14.71,0,0,0-9.66-13.81l-2.68-1a56.66,56.66,0,0,0-19.33-3.4Z"/></svg>