<svg id="Artwork" xmlns="http://www.w3.org/2000/svg" viewBox="0 0 720 720"><path d="M532.39,537.45c-3.88-5.93-15.48-11.9-42.29-22l-.8-.3a93.84,93.84,0,0,1-60-81c-.15-1.92-.26-3.6-.33-4.95-.28-6.72-.56-30.72-.77-50.21h8.61a31.32,31.32,0,0,0,8.45-1.16l.54-.17c12.6-3.59,8.4-10.5,8.4-10.5s33.05-3.31,30.64-17.74c-.6-14.42-23.34-18.32-23.34-18.32s6.61-16.83-32.67-18c-8.73,0-5.42-12.61-1.52-12.61s18.35-5.71,18-11.41-9.33-4.53-7.51-8.42c.23-.52.46-1.15.7-1.82h35.24A12.21,12.21,0,0,0,486,266.64V185.88a12.23,12.23,0,0,0-10.36-12.06l-19.75-3A12.21,12.21,0,0,0,442,181.08a11.88,11.88,0,0,0-.13,1.79v18a8.14,8.14,0,0,1-8.15,8.14H414.85a8.14,8.14,0,0,1-8.15-8.14V175.05a14.29,14.29,0,0,0-9.33-13.42l-4.93-1.8a91.17,91.17,0,0,0-62.36,0l-4.93,1.8a14.28,14.28,0,0,0-9.33,13.42v25.82a8.14,8.14,0,0,1-8.15,8.14h-19a8.14,8.14,0,0,1-8.14-8.14v-18a12.21,12.21,0,0,0-12.21-12.2,13.35,13.35,0,0,0-1.79.13l-19.73,3a12.22,12.22,0,0,0-10.38,12.06v80.76a12.21,12.21,0,0,0,12.2,12.21H282a15.31,15.31,0,0,0,.67,1.82c1.8,3.89-7.21,2.7-7.51,8.42s14.12,11.41,18,11.41,7.21,12.61-1.52,12.61c-39.35,1.21-32.67,18-32.67,18s-22.83,3.9-23.34,18.32c-2.34,14.43,30.64,17.74,30.64,17.74s-4.2,7,8.43,10.5h0a35.72,35.72,0,0,0,9.59,1.31h7.94c-.21,19.49-.49,43.48-.77,50.21-.12,2-.35,4.66-.66,7.58a94,94,0,0,1-60,78.33l-.77.3c-26.84,10.06-38.44,16-42.29,22-2.87,4.41-7.17,24.11-7.17,28.19,0,0,360,.14,358.88,0C539.44,561.59,535.26,541.86,532.39,537.45ZM262.44,516.14h195a6.23,6.23,0,1,1,.77,12.44,5,5,0,0,1-.77,0h-195a6.23,6.23,0,0,1,0-12.44Zm232.21,35H225.33a6.21,6.21,0,1,1-.06-12.41H494.65a6.21,6.21,0,0,1,0,12.41Z"/></svg>