<svg id="Artwork" xmlns="http://www.w3.org/2000/svg" viewBox="0 0 720 720"><defs><style>.cls-1{fill:#fff;}.cls-2{fill:#231f20;}</style></defs><path class="cls-1" d="M425.35,571.6h-239c-8.68,0-8.68,0-10.41-1.78l-1.63-1.7v-2.34c0-4.66,4.29-25.53,8.1-31.39,4.67-7.23,16.1-13.35,45.14-24.25l.77-.28a87.72,87.72,0,0,0,56.15-73.5c.31-3.12.52-5.57.61-7.3.21-4.83.45-20,.73-44h-2.06a41,41,0,0,1-11.18-1.55c-6.7-1.91-10.92-5.06-12.63-9.33a11.45,11.45,0,0,1-.51-1.73C251.59,371,238,367.74,232.19,360a14.21,14.21,0,0,1-2.94-10.92c.75-12.53,13.16-19.42,23.11-22.29a15.65,15.65,0,0,1,2.49-6.65c5.21-7.91,17-12,36.06-12.65a4.41,4.41,0,0,0-.21-1.14,38.32,38.32,0,0,1-18.39-9.18A10.87,10.87,0,0,1,268.9,289a9.83,9.83,0,0,1,1.05-4.08H248.2a18.07,18.07,0,0,1-18-18.05V186.09a17.9,17.9,0,0,1,15.33-17.83l19.73-3A18,18,0,0,1,286,183.08v18a2.33,2.33,0,0,0,2.33,2.34H307.2a2.34,2.34,0,0,0,2.34-2.34v-26a20.17,20.17,0,0,1,13.23-18.91l4.93-1.8a97,97,0,0,1,66.38,0l4.92,1.8a20.16,20.16,0,0,1,13.23,18.91v25.81a2.33,2.33,0,0,0,2.34,2.33h18.88a2.33,2.33,0,0,0,2.33-2.33v-18a18,18,0,0,1,18-18,18.49,18.49,0,0,1,2.78.21l19.72,3a17.91,17.91,0,0,1,15.33,17.84v80.75a18.06,18.06,0,0,1-18,18H449.63a10,10,0,0,1,1.05,4.09,10.87,10.87,0,0,1-3.41,8.19,38.22,38.22,0,0,1-18.39,9.17,4.57,4.57,0,0,0-.21,1.15C447.8,308,459.54,312,464.73,320a15.6,15.6,0,0,1,2.49,6.65c9.95,2.87,22.36,9.76,23.11,22.29a14.29,14.29,0,0,1-2.92,10.92c-5.86,7.63-19.42,11-27.28,12.42a12.74,12.74,0,0,1-.51,1.73c-1.71,4.34-5.93,7.49-12.56,9.33l-.52.17a37.11,37.11,0,0,1-10.05,1.4h-2.71c.25,24,.49,39.23.7,44.11,0,1.24.16,2.89.3,4.67a88.34,88.34,0,0,0,56.27,76l.77.28c29,10.9,40.41,17,45.12,24.25,3.76,5.76,8,26.75,8,31.39v.35c-.33,5.46-5.58,5.49-8.1,5.49H425.35ZM225,544.64a.39.39,0,0,0-.37.39.37.37,0,0,0,.37.38H494.32a.38.38,0,0,0,.38-.38h0a.4.4,0,0,0-.38-.39ZM262.11,522a.39.39,0,0,0-.37.39.38.38,0,0,0,.37.38h195a.4.4,0,0,0,.39-.38.41.41,0,0,0-.39-.39Z"/><path class="cls-2" d="M360.91,154.37a91.07,91.07,0,0,1,31.18,5.51l4.93,1.79a14.26,14.26,0,0,1,9.33,13.43v25.81a8.14,8.14,0,0,0,8.15,8.14h18.88a8.14,8.14,0,0,0,8.15-8.14v-18a12.2,12.2,0,0,1,12.18-12.2,11.77,11.77,0,0,1,1.87.14l19.74,3a12.22,12.22,0,0,1,10.37,12.07v80.75a12.21,12.21,0,0,1-12.21,12.21H438.05c-.23.68-.47,1.28-.7,1.8-1.8,3.92,7.21,2.7,7.51,8.42s-14,11.41-18,11.41-7.21,12.63,1.52,12.63c39.35,1.19,32.68,18,32.68,18s22.82,3.92,23.34,18.35c2.33,14.42-30.65,17.71-30.65,17.71s4.2,7-8.4,10.53l-.54.14a30.58,30.58,0,0,1-8.45,1.19h-8.61c.21,19.46.49,43.48.77,50.2,0,1.33.19,3,.33,4.93a93.83,93.83,0,0,0,60,81l.8.3c26.82,10.06,38.42,16.06,42.29,22,2.87,4.41,7,24.11,7,28.19H180c0-4.08,4.29-23.78,7.16-28.19,3.85-5.93,15.45-11.93,42.29-22l.77-.28a94,94,0,0,0,59.89-78.35c.31-3,.54-5.65.66-7.59.28-6.72.56-30.74.77-50.2h-7.94a35.72,35.72,0,0,1-9.59-1.31h0c-12.63-3.62-8.43-10.53-8.43-10.53S232.56,364,235,349.54c.6-14.43,23.34-18.35,23.34-18.35s-6.61-16.82,32.67-18c8.73,0,5.42-12.63,1.52-12.63s-18.34-5.7-18-11.42,9.34-4.5,7.51-8.42a17,17,0,0,1-.67-1.8h-33a12.21,12.21,0,0,1-12.21-12.2V186a12.22,12.22,0,0,1,10.39-12.07l19.72-3a13.08,13.08,0,0,1,1.87-.14,12.21,12.21,0,0,1,12.18,12.21v18a8.15,8.15,0,0,0,8.15,8.15h18.88a8.15,8.15,0,0,0,8.15-8.15V175.1a14.26,14.26,0,0,1,9.33-13.43l4.93-1.79a91.07,91.07,0,0,1,31.18-5.51M262,528.6H457.12a6.23,6.23,0,1,0,.76-12.44H262.11a6.23,6.23,0,0,0,0,12.44M225,551.24H494.32a6.23,6.23,0,0,0,0-12.44H225a6.23,6.23,0,0,0,0,12.44M360.91,142.79h0A102.63,102.63,0,0,0,325.74,149l-4.93,1.8a26,26,0,0,0-17.08,24.39v22.29H291.89V183a23.9,23.9,0,0,0-23.83-24h0a22.92,22.92,0,0,0-3.61.28l-19.75,3a23.76,23.76,0,0,0-20.28,23.62v80.76a23.9,23.9,0,0,0,23.87,23.88h14.9a17.16,17.16,0,0,0,5,10.45,25.06,25.06,0,0,0,3.19,2.81c-10.15,2.33-17.2,6.72-21.28,12.93a22.29,22.29,0,0,0-2.59,5.36c-10.9,3.95-23,12.12-23.95,26.24a19.93,19.93,0,0,0,4.11,15c6.25,8.19,18.48,12.16,27.56,14,2.64,5.46,7.94,9.34,15.8,11.67h.14a46.1,46.1,0,0,0,8.87,1.59c-.25,20.51-.46,33.61-.63,38.13,0,1.64-.3,4-.6,7a81.91,81.91,0,0,1-52.45,68.62l-.72.28c-30.76,11.67-42.41,18-48,26.53-4.55,7-9,29.11-9,34.57v4.67l3.29,3.38c3.45,3.55,5.58,3.55,14.59,3.55H538.62a11.67,11.67,0,0,0,12.14-11l-1.45-11.23c-1.63-8.49-4.46-19.39-7.47-24-5.55-8.54-17.22-15-48-26.53l-.72-.28a82.39,82.39,0,0,1-52.51-70.93c-.14-1.8-.24-3.36-.33-4.67-.16-4.53-.37-17.6-.63-38.09a42.63,42.63,0,0,0,8.47-1.52l.52-.14c7.88-2.33,13.18-6.14,15.84-11.67,9.06-1.87,21.29-5.84,27.54-14a19.93,19.93,0,0,0,4.11-15c-.95-14-13.05-22.29-23.94-26.24a22.71,22.71,0,0,0-2.6-5.36c-4.08-6.21-11.11-10.48-21.28-12.93a25.85,25.85,0,0,0,3.2-2.81,17.22,17.22,0,0,0,5-10.45h17a23.9,23.9,0,0,0,23.87-23.88V185.86a23.73,23.73,0,0,0-20.28-23.62l-19.75-3a22.92,22.92,0,0,0-3.61-.28,23.9,23.9,0,0,0-23.86,23.87v14.47H418V175a26,26,0,0,0-17.09-24.4L396,148.84a102.68,102.68,0,0,0-35.17-6.21Z"/></svg>