<svg id="Artwork" xmlns="http://www.w3.org/2000/svg" viewBox="0 0 720 720"><defs><style>.cls-1{fill-rule:evenodd;}</style></defs><path class="cls-1" d="M250.25,586.8a8.9,8.9,0,0,1,2.48-3.32c2.17-2,4.85-4.12,6.82-5.67a11.56,11.56,0,0,0-.88-1.42c-5.77-7.09-9-11.9-6.27-21.78,2.2-8,17.55-14.74,28.12-33.37a69.77,69.77,0,0,0,3.93-6.88,57,57,0,0,0,2.39-6,2.62,2.62,0,0,1,.18-.68h-2.37a9.23,9.23,0,0,1,0-18.45h2.57A85.16,85.16,0,0,0,315,442.12c1.94-9.93,4.54-63.36,5.77-85.78.16-3.88.31-7.86.46-11.83-5.11-1.63-3.35-4.55-3.35-4.55s-14.69-1.42-13.61-7.88c.26-6.4,10.4-8.13,10.4-8.13s-2-5.16,7.34-7.2c.08-7.33.15-16.82.21-25.88-15.11-12.45-24.9-37-24.9-57.43,0-21.63,11.35-48.91,28.12-69.24L341.66,227V148.28a74.69,74.69,0,0,1,10.28-6.76,11.83,11.83,0,1,1,16.73-.6l-.09.08c31.87,14.65,54.12,60.68,54.12,92.52,0,20.42-9.79,45-24.92,57.43,0,9.14.14,18.7.23,26.05,8.51,2.14,6.6,7.09,6.6,7.09s10.13,1.74,10.4,8.13c1.06,6.42-13.61,7.88-13.61,7.88s1.59,2.64-2.62,4.25c.15,4.06.31,8.12.46,12.09,1.24,22.42,3.83,75.9,5.78,85.78a84.93,84.93,0,0,0,27.78,47.06h2.56a9.22,9.22,0,1,1,0,18.44H433a2.54,2.54,0,0,0,.18.68,57.16,57.16,0,0,0,2.39,6.05,70.94,70.94,0,0,0,3.93,6.88c10.57,18.63,25.92,25.41,28.12,33.37,2.72,9.93-.5,14.72-6.28,21.78a14.49,14.49,0,0,0-.88,1.41c2,1.55,4.64,3.72,6.83,5.68a8.91,8.91,0,0,1,2.44,3.32,9.08,9.08,0,0,1,.61,3.57,9.29,9.29,0,0,1-6.81,8.52H256.43a9.29,9.29,0,0,1-6.81-8.52A9.18,9.18,0,0,1,250.25,586.8Z"/></svg>