<svg id="Artwork" xmlns="http://www.w3.org/2000/svg" viewBox="0 0 720 720"><defs><style>.cls-1{fill:#fff;fill-rule:evenodd;}</style></defs><path class="cls-1" d="M290.8,512.69a11.05,11.05,0,0,1-11.05-10.37,10.1,10.1,0,0,1,3.55-8.08c1-.87,2-1.75,3-2.56-4.14-5.27-6.6-10.16-4.25-18.64,1.05-3.78,4.27-6.75,8.35-10.49,4.41-4,9.89-9.06,14.23-16.71.38-.66.78-1.38,1.18-2a24.51,24.51,0,0,0,1.77-3.16q.22-.48.39-.9a10.72,10.72,0,0,1,2.6-21c3.63-4.32,11.84-15.77,15.54-34.52.5-2.53,1.14-9.5,1.87-20.71-3.3-1-5.42-2.67-6.3-4.93-.08-.2-.15-.41-.21-.61-4.14-.73-10.7-2.49-13.68-6.38a7.72,7.72,0,0,1-1.59-5.86c.4-6.44,6.59-10,11.68-11.57a8.07,8.07,0,0,1,1.09-2.92c1.85-3.07,5.62-5.13,11.22-6.15l.16-3.15c-3.63-2.29-4.36-4.69-4.26-6.42a5.77,5.77,0,0,1,3.28-4.91c-.15-.54-.32-1.19-.48-2a55.48,55.48,0,1,1,62.34,0c-.15.72-.31,1.39-.48,2a5.76,5.76,0,0,1,3.29,4.91c.09,1.73-.64,4.14-4.27,6.42l.18,3.15c5.59,1,9.35,3.08,11.2,6.15a8.07,8.07,0,0,1,1.09,2.92c5.09,1.55,11.28,5.13,11.68,11.57a7.72,7.72,0,0,1-1.59,5.86c-3,3.89-9.55,5.65-13.68,6.38a2.66,2.66,0,0,1-.19.61c-.9,2.26-3,3.92-6.31,4.93.74,11.22,1.38,18.2,1.86,20.71,3.7,18.72,11.92,30.17,15.55,34.52a10.72,10.72,0,0,1,2.59,21c.11.27.25.58.39.89a27.28,27.28,0,0,0,1.77,3.17c.4.64.8,1.29,1.19,2,4.33,7.65,9.81,12.67,14.22,16.7,4.14,3.75,7.3,6.72,8.35,10.5,2.35,8.46-.12,13.34-4.25,18.64,1,.8,2,1.69,3,2.54a10.76,10.76,0,0,1,2.83,3.94,10.45,10.45,0,0,1,.72,4.14,11.05,11.05,0,0,1-11.05,10.37Z"/><path d="M360.05,210.88a52,52,0,0,1,28.07,95.73,26.34,26.34,0,0,1-1.38,4.93c-.91,2,3.62,1.38,3.77,4.22.08,1.59-2.09,3.17-4.38,4.27.14,2.43.28,5.18.44,8.13,14.85,1.63,12.06,8.76,12.06,8.76s11.47,2,11.78,9.22c1.2,7.25-15.4,8.92-15.4,8.92s2.11,3.48-4.22,5.29a20.8,20.8,0,0,0-2.34.8c.71,11.05,1.45,20.52,2.1,23.81,3.72,18.82,12.11,31.51,17.36,37.28h1.32a7.28,7.28,0,1,1,1.27,14.5,6.74,6.74,0,0,1-1.27,0H407.4a5.44,5.44,0,0,0,.15.54,43.48,43.48,0,0,0,1.88,4.78,62.29,62.29,0,0,0,3.1,5.52c8.39,14.73,20.52,20.11,22.26,26.42,2.17,7.8-.38,11.65-5,17.23a9.82,9.82,0,0,0-.71,1.1c1.56,1.23,3.69,2.94,5.41,4.51a6.68,6.68,0,0,1,2.41,5.38,7.49,7.49,0,0,1-7.6,7H290.8a7.49,7.49,0,0,1-7.6-7,6.68,6.68,0,0,1,2.41-5.38c1.72-1.57,3.85-3.28,5.41-4.51a11.38,11.38,0,0,0-.7-1.1c-4.57-5.52-7.13-9.43-5-17.23,1.74-6.31,13.89-11.69,22.26-26.42a58.58,58.58,0,0,0,3.1-5.52,48,48,0,0,0,1.9-4.78,2.5,2.5,0,0,1,.13-.54h-1.83a7.28,7.28,0,0,1-.64-14.54h1.84c5.25-5.76,13.64-18.45,17.36-37.28.65-3.29,1.38-12.71,2.1-23.81a21.93,21.93,0,0,0-2.32-.8C322.9,358.5,325,355,325,355s-16.57-1.67-15.4-8.92c.29-7.25,11.77-9.22,11.77-9.22s-2.76-7.13,12.05-8.76c.17-2.95.31-5.7.45-8.13-2.3-1.1-4.46-2.68-4.38-4.27.15-2.87,4.68-2.26,3.77-4.22a26.56,26.56,0,0,1-1.38-4.93A52,52,0,0,1,360,210.83m0-6.9a58.89,58.89,0,0,0-35.31,106,8.74,8.74,0,0,0-2.12,5.4,9.35,9.35,0,0,0,3,7.28,16.29,16.29,0,0,0-9.66,6.82,12.72,12.72,0,0,0-1,2.07c-5.63,2.14-11.73,6.49-12.25,13.9a11.21,11.21,0,0,0,2.28,8.28c3.22,4.21,9.3,6.31,14,7.33a11.54,11.54,0,0,0,5.36,4.81c-.81,11.8-1.38,16.2-1.64,17.76-3.29,16.57-10.19,27.13-13.94,31.85a14.17,14.17,0,0,0-5.52,25.93l-.4.64c-.4.65-.83,1.38-1.24,2.07-4.08,7.17-9.12,11.79-13.56,15.87s-8,7.37-9.35,12.11c-2.32,8.39-.46,14,2.91,19l-.62.54a13.6,13.6,0,0,0-4.69,10.77,14.44,14.44,0,0,0,14.5,13.69H429.28a14.45,14.45,0,0,0,14.5-13.71,13.86,13.86,0,0,0-1-5.52,14.06,14.06,0,0,0-3.73-5.25l-.61-.54c3.36-5,5.22-10.6,2.9-19-1.31-4.73-5-8.16-9.35-12.11s-9.48-8.7-13.56-15.86c-.41-.75-.84-1.38-1.24-2.07l-.4-.64a14.17,14.17,0,0,0-5.52-25.93c-3.75-4.72-10.65-15.27-13.92-31.86-.32-1.56-.85-5.95-1.66-17.76a11.51,11.51,0,0,0,5.36-4.8c4.66-1,10.74-3.12,14-7.33a11.32,11.32,0,0,0,2.28-8.29c-.53-7.41-6.61-11.75-12.26-13.89a12.33,12.33,0,0,0-1-2.07c-1.9-3.15-5.09-5.41-9.66-6.81a9.36,9.36,0,0,0,3-7.29,8.72,8.72,0,0,0-2.12-5.4,58.89,58.89,0,0,0-35.3-106Z"/></svg>