<svg id="Artwork" xmlns="http://www.w3.org/2000/svg" viewBox="0 0 720 720"><path d="M469.76,611.78a8.94,8.94,0,0,0-2.44-3.32c-2.18-2-4.86-4.13-6.83-5.68a12.92,12.92,0,0,1,.88-1.42c5.77-7.09,9-11.9,6.27-21.78-2.2-8-17.55-14.74-28.12-33.37a74.05,74.05,0,0,1-3.93-6.88,56.1,56.1,0,0,1-2.38-6,2.76,2.76,0,0,0-.19-.68h2.39a9.22,9.22,0,0,0,0-18.44h-2.57a85.16,85.16,0,0,1-27.78-47.08c-1.94-9.93-4.54-63.36-5.77-85.78-.37-9.33-.74-19.14-1.08-28.53-.2-8.06-.41-42.56-.51-58.35.65-1,2.49-2.46,7.28-3.87,9.27-2.76,6.18-8,6.18-8S435.46,280,433.69,269c-.44-11-17.22-14-17.22-14s2.92-7.76-9.35-11.65h6.28a3.1,3.1,0,0,0,3.1-3.08v-2.84a3.1,3.1,0,0,0-3.1-3.08h-7.28c-.24-13.23,1.15-46.08,18.05-78l4.85-5.28a6.7,6.7,0,0,0-.28-9.37l-1-1a6.71,6.71,0,0,0-9.39.09l-4.71,4.71a6.73,6.73,0,0,1-4.74,2H407a6.79,6.79,0,0,1-4.74-2l-6-6a6.73,6.73,0,0,0-4.74-2h-.31a6.75,6.75,0,0,0-4.74,2L385,141c-2.84-8.43-7.78-15.18-13.75-19a15.51,15.51,0,1,0-22.94,0c-6,3.85-10.85,10.6-13.75,19l-1.5-1.5a6.7,6.7,0,0,0-4.76-2H328a6.73,6.73,0,0,0-4.74,2l-6,6a6.81,6.81,0,0,1-4.74,2h-1.72a6.75,6.75,0,0,1-4.75-2l-4.7-4.71a6.71,6.71,0,0,0-9.39-.09l-1,1a6.71,6.71,0,0,0-.28,9.37l4.85,5.28c16.9,31.91,18.29,64.75,18.05,78h-7.28a3.09,3.09,0,0,0-3.09,3.08v3a3.09,3.09,0,0,0,3.09,3.08h6.29c-12.29,3.89-9.35,11.65-9.35,11.65s-16.79,3-17.24,14c-1.76,11,22.53,13.52,22.53,13.52s-3.08,5.28,6.18,8c5.68,1.67,7.21,3.33,7.55,4.4-.1,16-.31,49.85-.51,57.82-.34,9.4-.71,19.2-1.08,28.54-1.23,22.41-3.83,75.9-5.77,85.77a84.93,84.93,0,0,1-27.73,47h-2.56a9.22,9.22,0,1,0,0,18.44H287a2.71,2.71,0,0,1-.18.69,60.08,60.08,0,0,1-2.38,6,75.37,75.37,0,0,1-3.93,6.88c-10.57,18.63-25.93,25.41-28.12,33.37-2.73,9.93.49,14.73,6.27,21.78a14.65,14.65,0,0,1,.88,1.42c-2,1.54-4.64,3.71-6.83,5.67a8.54,8.54,0,0,0-3,6.9,9.29,9.29,0,0,0,6.81,8.51H463.57a9.29,9.29,0,0,0,6.81-8.51A9.14,9.14,0,0,0,469.76,611.78Z"/></svg>