<svg id="Artwork" xmlns="http://www.w3.org/2000/svg" viewBox="0 0 720 720"><path d="M542.16,204.2a34.75,34.75,0,0,0-15.38,64.74l-4.43,9.11c-7.73,16.33-26,46.35-36.06,66.86L468,382.26l-3.73-65.35c-2.08-35.9-4.23-73.08-4.67-82.58v-.44a34.69,34.69,0,1,0-15.36-2.17l-15.45,44.34c-28.5,81.88-33.28,95.11-33.89,94.51s-10.45-56-25.81-143.41l-2.52-14a34.75,34.75,0,0,0-6.35-68.92h0a34.75,34.75,0,0,0-6.35,68.92l-4.9,28.54c-12.49,71.36-22.9,128.54-23.34,129.08s-6.37-15.74-33.77-94.63l-16.34-46.68a34.55,34.55,0,1,0-14.33,2.06c-.66,8.82-2.52,41.82-4.32,76-1.89,35.41-3.73,66.68-4,69.48-.49,5.28-17-19.32-54.15-97.35l-5.11-10.8a34.89,34.89,0,1,0-17.51,4.66,20.47,20.47,0,0,0,2.94-.14c1.71,13.12,7.68,30.95,10,50.26,4.67,38.69,8.92,71.84,9.34,73.7s7.35,11.35,15.35,21.15c15,18.32,19.31,25.53,28.78,47.64L248,479s-2,13.42-3.36,25.88h-6.81a13.46,13.46,0,0,0-10.55,21.82C202.59,536,191.67,541.81,188,547.51c-2.87,4.41-7.16,24.11-7.16,28.19,0,0,360,.14,358.85,0,0-4.06-4.18-23.78-7-28.19-3.71-5.7-14.66-11.46-39.4-21a13.45,13.45,0,0,0-10.55-21.78h-7.91v-.32c-.63-12.54-2.34-25.54-2.34-25.54l5.91-13.63L486.66,446c1.28-3,9.59-14.52,18.41-25.46s16.48-21.76,16.95-24.11,4.67-35.6,9.34-73.8c2.33-19,8.33-36.41,10-49.37,1,0,1.85.14,2.83.14a34.73,34.73,0,0,0-.44-69.46c-.53,0-1,0-1.57.05ZM494.71,533.06a8,8,0,0,1,0,15.92H225.39a8,8,0,0,1,0-15.92Zm-12.23-22.62a8,8,0,0,1,0,15.9H237.64a8,8,0,0,1-.86-15.9h245.7Z"/></svg>