<svg id="Artwork" xmlns="http://www.w3.org/2000/svg" viewBox="0 0 720 720"><defs><style>.cls-1{fill:#fff;fill-rule:evenodd;}</style></defs><path class="cls-1" d="M261.37,566l-.49-.14a12.41,12.41,0,0,1-9.08-11.44,11.61,11.61,0,0,1,4.14-9.39c1.38-1.25,2.9-2.52,4.24-3.61-5.22-6.57-8.44-12.42-5.52-22.82,1.22-4.45,5.12-8,10.06-12.54,5.53-5,12.24-11.23,17.64-20.71.45-.82.95-1.6,1.38-2.39a32.49,32.49,0,0,0,2.23-4l.85-2a12.43,12.43,0,0,1-5.27-21.74A78.21,78.21,0,0,1,277,432.71c-.3-28.82,21.64-55,42.54-77.33.35-6.31.68-12.43,1-17.81.23-4.21.42-8,.6-11.16.32-8.06.64-16.57.94-24.73l-8.5,7.15c-.75,1-3.95,5.53-3.18,10.39.46,2.84-.68,5.88-3.34,9-4.05,4.73-12.06,9.82-17.52,9.82a5.93,5.93,0,0,1-4.78-2l-1-1.17a9.49,9.49,0,0,1-3,.78,58.77,58.77,0,0,0-7.87,1.52,5.28,5.28,0,0,1-1.25.15c-3.77,0-7.72-4.07-9.45-6.07-7.88-6.6-17.22-15.52-17-20.52.5-12.06,6.09-18.85,12-26.06,4.15-5.08,8.52-10.35,11.64-18.16,2.23-5.52,5.85-13.18,10.76-22.71a67.34,67.34,0,0,1-.95-14.25c.12-2.07.47-8.29,18.1-23.56-5.85-10.6-6.36-13-3.85-15.05,15.52-12.57,35.75-15.19,50-15.19,2,0,4,0,5.91.15a87.37,87.37,0,0,0-2.95-17l-1.18-4.64,4.77.33c11.35.8,32.56,8.29,33.7,30.85l14.65,9.66a170.42,170.42,0,0,1,76.94,143.74l-.17,22.28c.84,8.37.42,11.23-.49,12.91-1.26,2.35-4,4.67-8.18,8.18-12.58,10.6-35.9,30.2-37.59,70.57a12.43,12.43,0,0,1,.17,24.29l.84,2a35.57,35.57,0,0,0,2.24,4,22.63,22.63,0,0,1,1.38,2.38c5.4,9.5,12.19,15.72,17.65,20.71,4.93,4.51,8.82,8.09,10.05,12.54,2.86,10.37-.36,16.25-5.52,22.82,1.38,1.09,2.85,2.36,4.24,3.61a11.77,11.77,0,0,1,4.14,9.39A12.49,12.49,0,0,1,454.3,566l-.48.14Z"/><path d="M349.11,158s30.53,2.16,30.53,29.3l16.17,10.62a166.9,166.9,0,0,1,56.9,63.28h0a167,167,0,0,1,18.48,77.54L471,361.24c.59,5.74.65,9.76-.08,11-4.31,8-44.8,26.72-46.23,82.22a8.86,8.86,0,0,1-.07,1.38h1.2a9,9,0,0,1,0,17.95h-2.27c.05.22.11.45.18.66a62,62,0,0,0,2.31,5.89,72.74,72.74,0,0,0,3.84,6.69c10.29,18.13,25.23,24.73,27.37,32.48,2.65,9.67-.49,14.33-6.11,21.2a12.16,12.16,0,0,0-.85,1.38c1.9,1.5,4.51,3.61,6.64,5.52a8.27,8.27,0,0,1,3,6.71,9.07,9.07,0,0,1-6.63,8.29H261.86a9,9,0,0,1-6.61-8.29,8.63,8.63,0,0,1,.59-3.48,8.8,8.8,0,0,1,2.36-3.23c2.13-1.91,4.74-4,6.66-5.52a12.32,12.32,0,0,0-.87-1.38c-5.61-6.91-8.75-11.59-6.1-21.2C260,511.8,275,505.2,285.27,487.07a72.55,72.55,0,0,0,3.82-6.69,52.11,52.11,0,0,0,2.31-5.89c.08-.23.12-.44.19-.66h-2.26a8.93,8.93,0,0,1-3.51-17.16,73.14,73.14,0,0,1-5.36-24c-.3-27.52,21.12-53.08,42.46-75.78.65-11.69,1.22-22.75,1.62-30.24.37-9.09.73-18.63,1.06-27.77,0-1.11,0-2.76.09-4.73L311,306.47s-5.24,6.24-4.15,13.34c1,6.09-11.79,14.86-17.45,14.86a2.76,2.76,0,0,1-2.14-.79l-3.18-3.77a4.48,4.48,0,0,1-3.81,2.18,61.4,61.4,0,0,0-8.28,1.59,1.7,1.7,0,0,1-.45,0c-2.76,0-7-5.08-7-5.08s-16.14-13.56-16-17.95c.8-19,15.6-23.6,23.48-43.07,2.56-6.38,6.72-14.89,11.14-23.47a65.71,65.71,0,0,1-1.09-14.61c.34-6.18,11.49-16.57,19-23-2.35-4.14-6.9-12.51-6.08-13.16,14.9-12,34.64-14.43,47.82-14.43,3,0,5.71.13,7.9.29h.08c3.86,0-1.67-21.44-1.67-21.44m-47.15,85.49c1.21,0,2.59-.91,4.35-2.54,1.55-1.55,3-3.17,4.42-4.86a.28.28,0,0,0,0-.39.26.26,0,0,0-.22-.1h0c-3.64.65-6.13.6-9.73,2.18a3.2,3.2,0,0,0-2,2.55,2.19,2.19,0,0,0,.36,1.38,3.19,3.19,0,0,0,2.62,1.82m38.08-93,2.39,9.28a116.13,116.13,0,0,1,2.52,12.55H342.8c-14.81,0-35.91,2.76-52.16,16-4.82,3.91-1.92,9.79,0,13.69.53,1.06,1.11,2.18,1.69,3.28-14.86,13.34-17,20.12-17.21,24.14a69.4,69.4,0,0,0,.8,13.81c-4.69,9.15-8.17,16.57-10.37,22-2.93,7.32-7.08,12.43-11.05,17.24-6,7.34-12.23,14.9-12.78,28.12-.1,2.13-.33,7.73,18,23.21,2.88,3.31,7.18,7.06,11.87,7.06a8.36,8.36,0,0,0,2.06-.25A56.67,56.67,0,0,1,281,339.2a13.35,13.35,0,0,0,1.54-.25,9.64,9.64,0,0,0,6.91,2.66c6.64,0,15.61-5.73,20.14-11,4.15-4.92,4.56-9.14,4.15-11.82-.47-2.9,1.38-6.2,2.27-7.43l2.26-1.91c-.2,5.32-.42,11.2-.65,16.95-.18,3.16-.38,6.9-.6,11.15-.27,5-.56,10.66-.88,16.57-21.11,22.59-43,49-42.61,78.71a81.63,81.63,0,0,0,4,21.56,15.83,15.83,0,0,0,1.22,22.36,15.63,15.63,0,0,0,3.34,2.3c-.4.7-.86,1.38-1.31,2.18s-1,1.62-1.51,2.5c-5.13,9-11.69,15.05-17,19.9s-9.57,8.75-11.05,14.15c-2.87,10.4-.33,16.93,4.15,23.21-.61.51-1.23,1-1.81,1.58a15.16,15.16,0,0,0-5.25,12.08,16,16,0,0,0,11.56,14.64l1,.27H454.3l.95-.27a15.92,15.92,0,0,0,11.56-14.64,15,15,0,0,0-5.25-12.08c-.58-.53-1.19-1.07-1.79-1.58,4.48-6.28,7-12.81,4.14-23.21-1.49-5.4-5.92-9.46-11.05-14.15s-11.85-10.87-17-19.9c-.5-.88-1-1.7-1.49-2.49s-.93-1.49-1.38-2.19a15.85,15.85,0,0,0-1.27-28.76c2.56-37.08,24.31-55.4,36.2-65.43,4.47-3.76,7.42-6.24,9-9.18,1.27-2.35,1.84-5.53.91-14.69l.17-22.1a174,174,0,0,0-78.49-146.63l-13.24-8.69c-1.12-12-7.57-21.32-18.82-27.11a51.12,51.12,0,0,0-17.95-5.22l-9.56-.68Z"/></svg>