<svg id="Artwork" xmlns="http://www.w3.org/2000/svg" viewBox="0 0 720 720"><path d="M532.17,536.86c-3.85-5.92-15.45-11.9-42.27-22a121.33,121.33,0,0,1-30.53-16.08,109.06,109.06,0,0,1-27.26-30.48h0c-3.41-5.3-9-19.42-13.82-32.68a225.49,225.49,0,0,1-13.07-61.52l-.14-1.8a34.08,34.08,0,0,1,3.71-1.19c10.08-2.66,6.72-7.77,6.72-7.77S441.91,361,440,350.26c-.49-10.67-18.68-13.54-18.68-13.54s4.42-10.48-19.18-12.9c-.23-4.35-.47-8.36-.68-11.95,3.64-1.61,7-3.95,7-6.26-.23-4.22-7.44-3.34-6-6.23a36.39,36.39,0,0,0,2.1-7.24c22.87-13.58,34.66-37.34,34.66-64.32,0-42.2-33.66-73.06-79.36-73.06s-79.36,30.86-79.36,73.06c0,27,11.67,50.74,34.64,64.32a38,38,0,0,0,2.1,7.24c1.45,2.89-5.76,2-6,6.23-.14,2.33,3.32,4.67,7,6.26-.21,3.59-.45,7.6-.68,11.95-23.6,2.33-19.19,12.9-19.19,12.9s-18.23,2.87-18.67,13.54c-1.91,10.67,24.48,13.12,24.48,13.12s-3.36,5.11,6.73,7.77a32.66,32.66,0,0,1,3.71,1.19v.49A230,230,0,0,1,300.82,437c-5.16,13.82-11,28.4-14.47,33.72a107.4,107.4,0,0,1-26,28.32A121.9,121.9,0,0,1,230,515c-26.84,10.06-38.44,16-42.29,22-2.87,4.41-7.17,24.11-7.17,28.19,0,0,360,.14,358.86,0C539.22,561,535,541.27,532.17,536.86ZM287.24,470.55h-.52C286.91,470.39,287.1,470.2,287.24,470.55Zm-25,47.92h195.1a6.23,6.23,0,1,1,.76,12.44,4.82,4.82,0,0,1-.76,0H262.24a6.23,6.23,0,0,1,0-12.44Zm232.21,35H225.13a6.23,6.23,0,0,1,0-12.44H494.45a6.23,6.23,0,0,1,0,12.44Z"/></svg>