<svg id="Artwork" xmlns="http://www.w3.org/2000/svg" viewBox="0 0 720 720"><defs><style>.cls-1{fill-rule:evenodd;}</style></defs><path class="cls-1" d="M456.78,536.53a8.11,8.11,0,0,0-2.21-3c-2-1.8-4.46-3.79-6.26-5.19.33-.51.52-.94.81-1.3,5.28-6.44,8.24-10.89,5.67-19.86-2-7.29-16.06-13.49-25.73-30.53q-2-3.06-3.61-6.3a54.48,54.48,0,0,1-2.17-5.52c-.07-.22-.11-.42-.17-.62h2.13a8.41,8.41,0,0,0,0-16.81h-1.42c-6.06-6.66-15.76-21.29-20.06-43.08-1.79-9-4.16-58-5.29-78.47-.14-3.76-.31-17.18-.43-28.06h4.81a18.07,18.07,0,0,0,5-.74h0c7.09-2,4.71-5.87,4.71-5.87s18.44-1.86,17.14-9.93c-.35-8.08-13.11-10.26-13.11-10.26s3.7-9.41-18.32-10.07c-4.87,0-3-7.1-.84-7.1s10.25-3.19,10.08-6.38-5.21-2.51-4.26-4.7a9,9,0,0,0,.4-1h19.86a6.82,6.82,0,0,0,6.82-6.82V189.68a6.82,6.82,0,0,0-5.61-6.7l-11.07-1.73a6.83,6.83,0,0,0-7.78,5.71,7.15,7.15,0,0,0-.08,1v10.07a4.56,4.56,0,0,1-4.56,4.56H390.68a4.55,4.55,0,0,1-4.55-4.56h0V183.62a8,8,0,0,0-5.27-7.5l-2.75-1a51.14,51.14,0,0,0-34.89,0l-2.75,1a8,8,0,0,0-5.26,7.5v14.44a4.56,4.56,0,0,1-4.56,4.56H320.1a4.56,4.56,0,0,1-4.56-4.56V188a6.81,6.81,0,0,0-6.8-6.82,7.17,7.17,0,0,0-1,.08l-11,1.73a6.85,6.85,0,0,0-5.81,6.76v45.15a6.83,6.83,0,0,0,6.83,6.83h18.64a10.57,10.57,0,0,0,.38,1c1,2.18-4,1.5-4.25,4.7s7.9,6.38,10.09,6.38,4,7.09-.84,7.09c-22,.67-18.32,10.08-18.32,10.08s-12.77,2.18-13.11,10.25c-1.42,8.06,17.14,9.94,17.14,9.94s-2.35,3.85,4.7,5.87h0a17.94,17.94,0,0,0,5,.74H322c-.11,10.88-.28,24.3-.43,28.06-1.13,20.5-3.49,69.43-5.28,78.47-4.26,21.76-14,36.42-20.08,43.07h-1.42a8.42,8.42,0,0,0,0,16.82h2.15l-.19.62a50.15,50.15,0,0,1-2.17,5.52,63.22,63.22,0,0,1-3.6,6.3c-9.68,17-23.71,23.24-25.73,30.53-2.49,9,.46,13.48,5.68,19.86q.44.63.81,1.29c-1.8,1.42-4.26,3.4-6.24,5.2a8,8,0,0,0-2.23,3,8.3,8.3,0,0,0-.57,3.27,8.68,8.68,0,0,0,8.8,8.13H448.56a8.66,8.66,0,0,0,8.79-8.13A8.09,8.09,0,0,0,456.78,536.53Z"/></svg>