<svg id="Artwork" xmlns="http://www.w3.org/2000/svg" viewBox="0 0 720 720"><path d="M532.22,547.57c-3.85-5.93-15.45-11.9-42.29-22-26.44-10-42.76-22.85-57.69-46.43v-9.71c28.94-23.83,47.66-70.83,47.66-109.93,0-60.94-42.58-149-103.56-177.08a22.66,22.66,0,1,0-32,.79l.2.19a140.54,140.54,0,0,0-19.72,13V347.13L293.76,227c-32,38.93-53.82,91-53.82,132.52,0,39.1,18.67,86.1,47.66,109.93v11.79h-1.19c-14.57,22.24-30.72,34.68-56.37,44.35-26.84,10.06-38.44,16-42.29,22-2.87,4.41-7.19,24.11-7.19,28.2,0,0,360,.14,358.88,0C539.27,571.7,535.1,552,532.22,547.57Zm-269.92-18H457.4a6.23,6.23,0,1,1,.76,12.44H262.3a6.23,6.23,0,0,1,0-12.44Zm232.21,35H225.19a6.23,6.23,0,0,1,0-12.44H494.51a6.23,6.23,0,0,1,0,12.44Z"/></svg>