<svg id="Artwork" xmlns="http://www.w3.org/2000/svg" viewBox="0 0 720 720"><path d="M469.78,631.9a8.75,8.75,0,0,0-2.42-3.32c-2.19-2-4.87-4.13-6.84-5.68a13,13,0,0,1,.89-1.42c5.76-7.09,9-11.9,6.28-21.78-2.22-8-17.55-14.74-28.14-33.36a76.91,76.91,0,0,1-3.93-6.89,54,54,0,0,1-2.37-6c-.08-.24-.13-.45-.2-.68h2.33a9.22,9.22,0,0,0,0-18.44h-2.57a85,85,0,0,1-27.76-46.95c-2-9.93-4.56-63.36-5.78-85.78-.38-9.33-.75-19.14-1.09-28.53-.18-7.79-.4-40.29-.5-56.75h.39c-.1-.86.51-3,7.63-5.08,9.28-2.75,6.19-8,6.19-8s24.28-2.52,22.53-13.52c-.46-11-17.24-14-17.24-14s1.93-5.1-3.9-9.11v-.22h3.33a4.56,4.56,0,0,0,.51-9.1h-.75l24.54-72.35a5.87,5.87,0,0,0-3.66-7.3L397.77,161.2s12-5.88-14.19-10.77c0,0,18.45-9.14,0-20.88h15.81a6.5,6.5,0,0,0,6.82-6.1V104.14a6.49,6.49,0,0,0-6.82-6.1H383.58l8.84-12.77c2.84-4.06-.44-9.32-5.79-9.32h-52c-5.35,0-8.62,5.26-5.79,9.32L337.69,98H321.88a6.49,6.49,0,0,0-6.82,6.1v19.31a6.5,6.5,0,0,0,6.82,6.1h15.81c-18.45,11.74,0,20.88,0,20.88-26.28,4.89-14.19,10.77-14.19,10.77L284,177.58a5.9,5.9,0,0,0-3.66,7.3l24.54,72.35h-.24a4.56,4.56,0,0,0,0,9.1H308v.22c-5.83,4-3.9,9.11-3.9,9.11s-16.78,3-17.22,14c-1.78,11,22.53,13.52,22.53,13.52s-3.1,5.28,6.18,8c3.93,1.17,5.88,2.33,6.81,3.29-.1,15.68-.32,50.41-.51,58.48-.35,9.4-.71,19.2-1.09,28.54-1.22,22.41-3.82,75.9-5.77,85.77a85.11,85.11,0,0,1-27.77,47.08h-2.57a9.22,9.22,0,0,0,0,18.44H287a2,2,0,0,1-.2.68,55,55,0,0,1-2.37,6,76.74,76.74,0,0,1-3.93,6.88c-10.58,18.62-25.92,25.41-28.13,33.37-2.73,9.93.51,14.72,6.27,21.77a16.07,16.07,0,0,1,.89,1.42c-2,1.55-4.65,3.72-6.84,5.68a9,9,0,0,0-2.42,3.32,9.06,9.06,0,0,0-.63,3.57,9.32,9.32,0,0,0,6.81,8.51H463.57a9.28,9.28,0,0,0,6.8-8.51A8.88,8.88,0,0,0,469.78,631.9Z"/></svg>