<svg id="Artwork" xmlns="http://www.w3.org/2000/svg" viewBox="0 0 720 720"><defs><style>.cls-1{fill:#fff;}.cls-2{fill:#231f20;}</style></defs><path class="cls-1" d="M195.46,577.85c-17.52,0-17.52,0-19.27-2l-1.45-1.63V572c0-4.67,4.29-25.54,8.1-31.37,2.92-4.51,8.33-8.48,18.37-13.26a19.91,19.91,0,0,1,2.47-28.05,21.07,21.07,0,0,1,1.94-1.43c0-2-1.38-47.17-1.38-47.17l-18.11-17.32c-31.81-30.34-46.68-52.84-51.35-77.6-6.18-33.45,16.34-72.75,51.35-89.46a95.08,95.08,0,0,1,45.33-10.58c2.73,0,5.6,0,8.75.24a109.4,109.4,0,0,1,38.32,8.12,89.18,89.18,0,0,0,33.82,6.7l.31,5.83v-5.83a21.33,21.33,0,0,0,20.74-21.59V231.18H295V181.07H333.4V142.65h53.36v38.42h38.42v50.11H386.76v18.07a21.34,21.34,0,0,0,20.75,21.59l.26,5.83v-5.83a86.25,86.25,0,0,0,33.14-6.56,109.78,109.78,0,0,1,39-8.26c3.15-.17,6-.24,8.73-.24A95.18,95.18,0,0,1,534,266.35c35,16.72,57.41,56,51.23,89.47-4.67,24.76-19.44,47.24-51.35,77.6l-18.09,17.32s-1.33,45.16-1.37,47.17a19.89,19.89,0,0,1,5.85,27.51,19,19,0,0,1-1.42,1.92c10.08,4.83,15.52,8.8,18.44,13.31,3.76,5.74,8,26.72,8,31.37v.35c-.33,5.46-5.61,5.48-8.15,5.48H195.46Zm29.9-42.74a2.13,2.13,0,0,0-.44,4.23H494.66a2.13,2.13,0,0,0,.44-4.23H225.36Zm12.23-22.63a2.12,2.12,0,1,0,0,4.24H482.43a2.12,2.12,0,0,0,0-4.24ZM486,426.12c11.15-10,76.69-71.49,48.22-111.59-10.36-14.57-26.1-22-46.68-22a98.83,98.83,0,0,0-14.17,1.05,87.91,87.91,0,0,0-67.43,48.22c-9.87,20.58-9.47,40.56-8.94,68.22,0,5.16.19,10.46.24,16.06Zm-163.15,0c0-5.6.14-10.9.23-16.06.54-27.66.94-47.64-8.93-68.22a87.91,87.91,0,0,0-67.43-48.22,98.93,98.93,0,0,0-14.17-1.05c-20.63,0-36.34,7.39-46.68,22-28.52,40.14,37,101.6,48.22,111.59Z"/><path class="cls-2" d="M380.85,148.49v38.42h38.42v38.44H380.85v23.9a27.2,27.2,0,0,0,26.54,27.42h.31a92.48,92.48,0,0,0,35.36-7,103.94,103.94,0,0,1,37.06-7.84c3-.14,5.79-.21,8.45-.21a89.07,89.07,0,0,1,42.83,10c32.67,15.63,53.68,52.16,48,83.13-4.34,23.55-18.67,44.91-49.55,74.46l-19.84,19-1.26,43.25c-.12,3.6-.21,7-.31,10a14,14,0,0,1-1.33,26.8v.3c15,6.3,22.39,10.83,25.3,15.31s7,24.11,7,28.2H180.57c0-4.09,4.3-23.79,7.17-28.2s10.25-9,25.18-15.26a2,2,0,0,0,0-.35,14,14,0,0,1-1.33-26.8c0-3.06-.18-6.39-.3-10L210,448.17l-19.84-19c-31-29.55-45.21-50.91-49.55-74.46-5.74-31,15.36-67.5,48-83.13a89.1,89.1,0,0,1,42.8-10c2.69,0,5.49,0,8.48.21a104,104,0,0,1,36.41,7.72,95.21,95.21,0,0,0,36,7h.31a27.18,27.18,0,0,0,26.53-27.42v-23.9H300.73V186.79h38.42V148.37h41.68M391.36,432h96.81s85.19-72.35,50.77-120.78c-13.31-18.67-32.68-24.44-51.35-24.44a106.24,106.24,0,0,0-15,1.12,93.93,93.93,0,0,0-71.84,51.35c-13,27.07-9.34,52.51-9.34,92.64m-159.55,0h96.89c0-40.13,3.73-65.57-9.34-92.64a93.93,93.93,0,0,0-71.84-51.35,106.24,106.24,0,0,0-15-1.12c-18.67,0-38.16,5.74-51.35,24.44C146.78,359.6,232,432,232,432m5.76,90.49H482.57a8,8,0,1,0,.06-15.92H237.71a8,8,0,0,0,0,15.92m-12.23,22.62h269.3a8,8,0,0,0,.86-15.9H225.36a8,8,0,0,0-.86,15.9c.29,0,.58,0,.86,0M392.52,136.61h-65V175H289.06v61.78h38.42V249a15.45,15.45,0,0,1-15,15.75h-.11a83.31,83.31,0,0,1-31.6-6.25A114.55,114.55,0,0,0,240.51,250c-3.24-.16-6.18-.23-9-.23a100.31,100.31,0,0,0-47.87,11.13,101.76,101.76,0,0,0-43.46,40.52c-10.34,17.92-14.24,37.55-11,55.27,4.83,26.09,20.17,49.5,53,80.78l16.34,15.66,1.12,38.44v3.34a25.68,25.68,0,0,0-6.77,30c-7.56,4.13-12.13,8-15,12.37-4.67,7-9.06,29.1-9.06,34.57v4.66l3.29,3.41c3.44,3.55,6.59,3.55,12.26,3.55H538.89a11.68,11.68,0,0,0,12.14-11l-1.45-11.23c-1.63-8.49-4.46-19.39-7.47-24s-7.44-8.26-15.08-12.41a25.67,25.67,0,0,0-6.79-29.95,31.82,31.82,0,0,1,.12-3.34l1.12-38.44,16.34-15.66c32.81-31.3,48.15-54.69,53-80.78,3.27-17.71-.63-37.34-11-55.27a101.45,101.45,0,0,0-43.45-40.52,100.43,100.43,0,0,0-47.87-11.13c-2.81,0-5.75,0-9,.23a115,115,0,0,0-41,8.71,80.43,80.43,0,0,1-30.9,6.11h-.23A15.45,15.45,0,0,1,392.43,249V236.76h38.42V175H392.43V136.56ZM403,420.19c0-3.55,0-7-.17-10.32-.53-27.87-.91-46.26,8.38-65.61a82,82,0,0,1,63-44.95,93.18,93.18,0,0,1,13.35-1c18.88,0,32.68,6.37,42,19.51,24.18,34-31.74,89.37-45.74,102.37Zm-166.63,0c-14-13-70-68.36-45.74-102.37,9.33-13.14,23.06-19.51,42-19.51a93.18,93.18,0,0,1,13.35,1,82,82,0,0,1,63,44.95c9.33,19.35,8.91,37.74,8.38,65.61,0,3.36,0,6.77-.19,10.32Z"/></svg>