<svg id="Artwork" xmlns="http://www.w3.org/2000/svg" viewBox="0 0 720 720"><path d="M510,448l19.84-19c31-29.57,45.21-50.9,49.55-74.45,5.74-31-15.36-67.5-48-83.14-17.51-8.4-30-10.78-51.35-9.78A104.57,104.57,0,0,0,443,269.44a92.31,92.31,0,0,1-35.37,7h-.3A27.22,27.22,0,0,1,380.76,249v-23.9h38.42V186.68H380.76V148.24H339.08v38.44H300.71v38.41h38.42V249a27.22,27.22,0,0,1-26.54,27.45h-.21a95.29,95.29,0,0,1-36-7.14A104.17,104.17,0,0,0,240,261.6c-21.31-1-33.77,1.38-51.34,9.78-32.68,15.64-53.69,52.14-48,83.13,4.34,23.55,18.55,44.89,49.55,74.46l19.83,19,1.27,43.23c0,3.62.21,7,.3,10A14,14,0,0,0,212.88,528a2.41,2.41,0,0,1,0,.38c-14.94,6.28-22.27,10.78-25.18,15.24s-7.17,24.11-7.17,28.19h359c0-4.06-4.18-23.78-7-28.19s-10.29-9-25.3-15.29V528a14,14,0,0,0,1.33-26.77c0-3.08.19-6.39.31-10Zm-27.59,58.47a8,8,0,1,1,.86,15.89,6.17,6.17,0,0,1-.86,0H237.69a8,8,0,1,1-.86-15.89,6.17,6.17,0,0,1,.86,0ZM181,311.06c16.9-23.76,43.63-26.59,66.48-23.34a94,94,0,0,1,71.86,51.51c13,27.07,9.34,52.49,9.34,92.61H231.9S146.66,359.49,181,311.06ZM494.64,545H225.34a8,8,0,0,1,0-15.92h269.3a8,8,0,0,1,0,15.92Zm-6.47-113.13H391.36c0-40.12-3.73-65.54,9.34-92.61a94,94,0,0,1,71.84-51.49c22.85-3.27,49.57-.44,66.47,23.34,34.36,48.41-50.84,120.76-50.84,120.76Z"/></svg>