<svg id="Artwork" xmlns="http://www.w3.org/2000/svg" viewBox="0 0 720 720"><defs><style>.cls-1{fill:#fff;}.cls-2{fill:#231f20;}</style></defs><path class="cls-1" d="M425.36,581.62h-239c-8.76,0-8.76,0-10.48-1.86l-1.59-1.69v-2.33c0-4.67,4.32-25.53,8.12-31.37,4.67-7.26,16.11-13.37,45.14-24.27,24.81-9.34,39.82-21,53.54-42l.26-.4v-5.53c-27.73-24.32-47.64-71.12-47.64-112.62,0-42,21.64-95.46,55.15-136.21l7.29-8.87,22.4,86.76V193.55l2.34-1.75a151.73,151.73,0,0,1,14.49-10,28.45,28.45,0,1,1,52.7-14.86,28,28,0,0,1-3.33,13.35c59.65,31.9,100.68,118.38,100.68,179.27,0,41.5-19.9,88.3-47.63,112.62v5.3c13.84,21.31,29.08,33.35,53.94,42.68,29,10.9,40.42,17,45.14,24.26,3.73,5.76,8,26.74,8,31.39v.35c-.33,5.46-5.58,5.48-8.1,5.48ZM225,558a.37.37,0,0,0-.37.38.37.37,0,0,0,.37.36H494.36a.36.36,0,0,0,.36-.38.36.36,0,0,0-.36-.36Zm37.11-22.64a.37.37,0,1,0,0,.74H457.25a.36.36,0,0,0,.36-.38.36.36,0,0,0-.36-.36Z"/><path class="cls-2" d="M359.68,144.18A22.61,22.61,0,0,1,376,182.39c61,28,103.56,116.16,103.56,177.08,0,39.1-18.67,86.1-47.66,109.93v9.71c14.94,23.58,31.25,36.48,57.7,46.43,26.84,10.06,38.44,16.05,42.29,22,2.87,4.41,7,24.11,7,28.2H180c0-4.09,4.31-23.79,7.19-28.2,3.85-5.93,15.45-11.92,42.29-22,25.67-9.64,41.8-22.06,56.36-44.35h1.19V469.4c-28.94-23.83-47.66-70.83-47.66-109.93,0-41.38,21.83-93.59,53.83-132.5l31,120.11V196.33a143,143,0,0,1,19.73-13,22.62,22.62,0,0,1,15.4-39.19M261.84,542h195.1a6.21,6.21,0,0,0,.06-12.42H262.15a6.21,6.21,0,0,0,0,12.42M225,564.61H494.36a6.21,6.21,0,0,0,0-12.42H225a6.21,6.21,0,1,0-.06,12.42H225m134.64-432.1a34.25,34.25,0,0,0-31.76,47.1c-3.55,2.34-7,4.83-10.48,7.52l-4.51,3.5v64.58l-8.09-31.11-5.75-22.24L284.53,219.6c-34.31,41.73-56.48,96.67-56.48,140,0,42.73,19.37,89.13,47.61,115.2V476c-12.79,19.16-26.93,30.08-50,38.77-30.76,11.53-42.41,18-48,26.53-4.67,7-9,29.11-9,34.57v4.67l3.29,3.38c3.43,3.55,5.58,3.55,14.59,3.55H538.61a11.82,11.82,0,0,0,12.16-11l-1.45-11.23c-1.65-8.49-4.46-19.39-7.49-24-5.55-8.54-17.2-15-48-26.53-23.34-8.76-37.21-19.47-50.16-39v-1c28.24-26.07,47.61-72.35,47.61-115.2,0-32.68-11.06-71.5-30.34-106.51-18.48-33.58-42.57-59.86-68.74-75.27a34.31,34.31,0,0,0-32.55-45.18Z"/></svg>