<svg id="Artwork" xmlns="http://www.w3.org/2000/svg" viewBox="0 0 720 720"><path d="M532.34,544.6c-3.78-5.79-15-11.67-40.49-21.29-1.94-35.59.74-75.06-37.56-110.86-19.6-14-32-13.75-33.16-24.48-1.24-13.08-2.5-26.78-3.69-39.89,0-1.59-.28-3.92-.47-6.79l22,16.59s8,8.57,7,18.86,25,24.41,29.32,18.67l4.27-5.69a6.48,6.48,0,0,0,5.65,2.84,93.22,93.22,0,0,1,12.11,1.64c3.92.72,10.34-7.8,10.34-7.8s22.17-20.77,21.57-27.17c-2.62-27.26-24.3-32.67-37-60.17-4.18-9-10.83-21-17.86-32.86a96.47,96.47,0,0,0,.44-21c-1-8.86-17.83-23-29.22-31.57,3.06-6.19,8.94-18.54,7.73-19.42-27.52-19.91-64.37-18.16-81.29-16-5.75.72.63-31,.63-31S328.84,152.7,331,191.75l-22.45,16.54a240.75,240.75,0,0,0-77,95.51h0a240.68,240.68,0,0,0-20.54,113l2,32.35c-.39,8.31-.16,14,1,16,4,6.63,26.61,17.7,45.7,42A123.72,123.72,0,0,1,230,522.57c-26.82,10.06-38.44,16-42.29,22-2.87,4.41-7.17,24.11-7.17,28.19,0,0,360,.14,358.88,0C539.39,568.73,535.21,549,532.34,544.6ZM443.42,246.15c1.86,1.87,4.17,2.8,12.55,6.51s3.27,19.54,3.27,19.54a16,16,0,0,0-9.34-8.15c-6.48-1.84-8.35-19.77-6.48-17.9Zm-181,283.42H457.51a6.23,6.23,0,0,1,0,12.44H262.39a6.23,6.23,0,0,1,0-12.44Zm232.21,35H225.3a6.23,6.23,0,1,1-.76-12.44,4.82,4.82,0,0,1,.76,0H494.6a6.23,6.23,0,1,1,.76,12.44Z"/></svg>