<svg id="Artwork" xmlns="http://www.w3.org/2000/svg" viewBox="0 0 720 720"><defs><style>.cls-1{fill:#fff;}.cls-2{fill:#231f20;}</style></defs><path class="cls-1" d="M425.39,579.93h-239c-8.76,0-8.76,0-10.51-1.87l-1.56-1.68v-2.33c0-4.67,4.29-25.54,8.1-31.37,4.67-7.26,16.1-13.38,45.14-24.28a125.88,125.88,0,0,0,23.08-11.15,179.58,179.58,0,0,0-29.5-26.47c-6.35-4.67-10.53-8-12.61-11.37-1.54-2.5-2.33-6.7-1.84-19l-2-32.05A246.5,246.5,0,0,1,304.6,204.78l20-14.72c.14-32.8,30.35-45.38,46.85-47.46l8.05-1-1.59,7.94A138.43,138.43,0,0,0,375,173.11c5.41-.54,10.9-.82,16.33-.82,18,0,43.93,3.2,64.94,18.37,4.17,3,3.75,6.68-3.83,22.43,26.35,20.61,27.33,29.62,27.68,32.68a98.82,98.82,0,0,1-.23,20.49c7.77,13.23,13.51,23.9,17.15,31.67,5,10.88,11.67,18.07,18,25,9.17,10,17.83,19.47,19.53,37.07.59,6.09-7.16,16.73-23,31.65-2.94,3.82-8.45,9.75-14.19,9.75a8,8,0,0,1-1.54-.14,83.27,83.27,0,0,0-11.35-1.56,14.21,14.21,0,0,1-4-.75l-1,1.29a9.57,9.57,0,0,1-8.15,3.61c-7.65,0-19.77-6.25-26.44-13.67-3.88-4.3-5.6-8.62-5.16-12.79.68-6.54-3.92-12.54-5.13-14L423.43,355c1,11.18,2.07,22.64,3.12,33.68.33,3,2.34,4.27,10.55,8.42a142.08,142.08,0,0,1,20.22,11.86l.3.23.28.26c36.06,33.72,37.55,70.88,38.88,103.65.12,2.48.21,4.93.33,7.38,25.11,9.66,35.31,15.38,39.68,22.19,3.76,5.77,8,26.75,8,31.4v.35c-.35,5.46-5.57,5.48-8.09,5.48H425.39ZM225.06,559.27a.37.37,0,0,0-.38.37.38.38,0,0,0,.37.38H494.36a.38.38,0,0,0,.38-.37.37.37,0,0,0-.37-.38H225.06Zm37.09-22.64a.38.38,0,0,0-.37.38.38.38,0,0,0,.37.37H457.27a.37.37,0,0,0,.38-.37.38.38,0,0,0-.37-.38H262.15ZM451.64,259.75a19.29,19.29,0,0,1,2.85,1.1,2.33,2.33,0,0,0-1-1.64l-3-1.33A5.76,5.76,0,0,0,451.64,259.75Z"/><path class="cls-2" d="M372.29,148.37s-6.23,31-.82,31h.19a157.68,157.68,0,0,1,19.79-1.27c18.37,0,42.25,3.32,61.5,17.28,1.22.86-4.67,13.21-7.72,19.42,11.39,8.58,28.21,22.71,29.22,31.57a96.47,96.47,0,0,1-.45,21c7,12,13.68,23.9,17.86,32.89,12.74,27.4,34.43,32.88,37,60.17.61,6.37-21.57,27.16-21.57,27.16s-5.9,7.85-9.85,7.85H497a85.13,85.13,0,0,0-12.11-1.64,6.48,6.48,0,0,1-5.65-2.84L475,396.64a4.17,4.17,0,0,1-3.5,1.3c-8.38,0-26.72-11.34-25.81-20,1.09-10.32-7-18.88-7-18.88l-22-16.6c.19,2.87.35,5.21.47,6.79,1.19,13.15,2.34,26.85,3.69,39.89C422,399.88,434.35,399.6,454,413.63c38.3,35.8,35.61,75.27,37.55,110.84C517,534.13,528.22,540,532,545.78c2.88,4.41,7,24.11,7,28.2H180.13c0-4.09,4.3-23.79,7.17-28.2,3.85-5.93,15.47-11.93,42.29-22a124.16,124.16,0,0,0,29.59-15.35c-19.09-24.46-41.66-35.5-45.7-42.16-1.14-1.86-1.37-7.65-1-16l-2-32.35A240.73,240.73,0,0,1,308.06,209.4l22.45-16.52c-2.12-39.07,41.66-44.56,41.66-44.56m86.69,125.06s5.11-15.82-3.27-19.54-10.69-4.66-12.56-6.51c0,0-.16-.14-.23-.14-1.42,0,.56,16.34,6.74,18a16,16,0,0,1,9.34,8.15M262,543.17H457.15a6.21,6.21,0,0,0,.06-12.42H262a6.21,6.21,0,0,0,0,12.42m-37.09,22.64H494.36a6.21,6.21,0,0,0,.05-12.42H225.06a6.21,6.21,0,0,0-.06,12.42h.06M386.92,134.74l-16.08,2c-17.78,2.33-50,15.61-51.86,50.22L301.26,200A252.39,252.39,0,0,0,199,418.67L201,450.39c-.61,13.65.54,18.42,2.71,22,2.68,4.36,7.21,7.79,14,13a190,190,0,0,1,23.83,20.43,136.07,136.07,0,0,1-15.94,7c-30.74,11.53-42.41,18-48,26.54-4.67,7-9.06,29.1-9.06,34.56v4.67l3.27,3.38c3.43,3.58,5.6,3.58,14.63,3.58H538.66a11.67,11.67,0,0,0,12.13-11l-1.44-11.23c-1.64-8.5-4.46-19.4-7.47-24-5-7.7-14.82-13.63-39-23.08l-.14-3.55C501.43,480,499.94,443.11,466,408.82a25.09,25.09,0,0,0,5.46.66,15.9,15.9,0,0,0,11.35-4.28h1.51a78.5,78.5,0,0,1,10.58,1.47,16,16,0,0,0,2.59.24c7.68,0,14.21-6.16,18.53-11.67,25.67-24.18,24.88-32.23,24.51-36.13-1.89-19.54-11.67-30.16-21-40.45-6.35-7-12.35-13.47-17-23.53-3.54-7.63-9.05-17.9-16.34-30.53a97.87,97.87,0,0,0,0-19.81c-.7-6.49-4.5-16.08-26.23-33.73.56-1.26,1.12-2.49,1.63-3.69,2.53-5.88,6.73-15.7-1.63-21.75-22.24-16.1-49.46-19.49-68.34-19.49-3.38,0-6.79,0-10.18.31.47-4.67,1.36-10.58,2.34-16.08l3.17-15.88Zm45.54,252.94c-.63-6.63-1.26-13.4-1.87-20.17h0a14.87,14.87,0,0,1,3.41,9.13A20.7,20.7,0,0,0,438.22,391a40.11,40.11,0,0,1-5.83-3.34Z"/></svg>