<svg id="Artwork" xmlns="http://www.w3.org/2000/svg" viewBox="0 0 720 720"><defs><style>.cls-1{fill:none;}.cls-2{fill:#fff;}.cls-3{fill:#231f20;}</style></defs><path class="cls-1" d="M118.08,67.6h.51C118.45,67.25,118.26,67.44,118.08,67.6Z"/><path class="cls-2" d="M286.68,470.76h.51C287.05,470.38,286.86,470.57,286.68,470.76Z"/><path class="cls-3" d="M287,470.55a.21.21,0,0,1,.19.18h-.51a.58.58,0,0,1,.32-.21m0-11.67a11.9,11.9,0,0,0-8.19,3.27l-22.64,20.75,30.69-.47h.52l17.81-.35-7.43-16.33a11.93,11.93,0,0,0-10.8-7Z"/><path class="cls-2" d="M425.43,571.17h-239c-8.68,0-8.68,0-10.41-1.78l-1.63-1.7v-2.34c0-4.66,4.29-25.53,8.1-31.39,4.67-7.23,16.1-13.35,45.14-24.25a114.88,114.88,0,0,0,29-15.22,101.33,101.33,0,0,0,24.55-26.84c1.54-2.33,5.34-9.59,13.89-32.67a223.45,223.45,0,0,0,13.16-58.35c-5.25-1.59-8.61-4.2-10-7.8v-.26c-6.74-1.12-17.46-3.82-22.08-9.91a11.66,11.66,0,0,1-2.33-8.92c.74-10.78,11.88-15.61,18.67-17.58a12.89,12.89,0,0,1,1.47-3.68c2.92-4.9,8.82-8.1,18-9.69l.18-3.38c-4.66-2.83-7-6.21-6.74-10a9.16,9.16,0,0,1,5-7.63l-.47-1.82c-22.47-14.4-35.31-39-35.31-68,0-45.73,35.78-78.91,85.12-78.91s85.12,33.18,85.12,78.91c0,29-12.83,53.68-35.33,68-.17.65-.31,1.26-.47,1.82a9.16,9.16,0,0,1,5,7.63c.21,3.83-2.05,7.21-6.74,10l.18,3.38c9.2,1.59,15.1,4.67,18,9.69a12.89,12.89,0,0,1,1.47,3.68c6.79,2,17.93,6.8,18.67,17.58a11.66,11.66,0,0,1-2.33,8.92c-4.67,6.09-15.34,8.79-22.08,9.91a1.13,1.13,0,0,1,0,.26c-1.38,3.6-4.67,6.21-10,7.8a219.21,219.21,0,0,0,12.53,57.11,281.34,281.34,0,0,0,11.67,28.92h.3l1.82,3.64a103.51,103.51,0,0,0,25.28,28A116,116,0,0,0,492,509.6c29,10.9,40.43,17,45.14,24.27,3.74,5.74,8,26.72,8,31.37v.35c-.32,5.46-5.57,5.48-8.09,5.48H425.43Zm-200.35-24a.36.36,0,0,0-.36.38.37.37,0,0,0,.36.37H494.4a.37.37,0,0,0,.38-.37.36.36,0,0,0-.36-.38H225.08Zm37.11-22.64a.38.38,0,0,0,0,.75H457.29a.37.37,0,0,0,.38-.37.36.36,0,0,0-.36-.38H262.19Z"/><path class="cls-3" d="M359.75,154.83c45.63,0,79.36,30.85,79.36,73.07,0,27-11.79,50.72-34.66,64.33a36.58,36.58,0,0,1-2.1,7.24c-1.45,2.87,5.77,2,6,6.2.14,2.34-3.32,4.67-7,6.28.21,3.57.44,7.61.67,11.95,23.6,2.34,19.19,12.89,19.19,12.89s18.23,2.89,18.67,13.56c1.92,10.66-24.48,13.11-24.48,13.11s3.36,5.11-6.72,7.78c-1.5.39-2.69.79-3.72,1.16l.14,1.82a225.66,225.66,0,0,0,13.08,61.5C423,449.05,428.58,463.2,432,468.4h0A109.39,109.39,0,0,0,459.23,499a121.27,121.27,0,0,0,30.53,16.06c26.82,10.06,38.42,16.06,42.27,22,2.87,4.41,7,24.11,7,28.19H180.18c0-4.08,4.29-23.78,7.16-28.19,3.85-5.93,15.45-11.93,42.29-22a121.9,121.9,0,0,0,30.35-16,107.24,107.24,0,0,0,26-28.33c3.5-5.32,9.34-19.89,14.47-33.73a229.31,229.31,0,0,0,13.82-64.14v-.49c-1-.37-2.22-.77-3.71-1.16-10.08-2.67-6.72-7.78-6.72-7.78s-26.4-2.33-24.48-13.11c.49-10.67,18.67-13.56,18.67-13.56s-4.41-10.48,19.18-12.89c.24-4.34.47-8.38.68-11.95-3.64-1.61-7-3.94-7-6.28.23-4.22,7.44-3.33,6-6.2a37.27,37.27,0,0,1-2.1-7.24c-22.85-13.61-34.64-37.34-34.64-64.33,0-42.22,33.63-73.07,79.35-73.07M286.4,470.76h.51a.19.19,0,0,0-.19-.19.58.58,0,0,0-.32.21m-24.21,60.29h195.1a6.21,6.21,0,0,0,.06-12.42H262.19a6.21,6.21,0,0,0-.05,12.42h.05m-37.11,22.64H494.4a6.21,6.21,0,1,0,.06-12.42H225.08a6.21,6.21,0,0,0,0,12.42M359.75,143.13c-25,0-48,8.45-64.67,23.79a81.64,81.64,0,0,0-26.28,61c0,28.92,12,53.85,33.26,69.62a14,14,0,0,0-2.5,7.5,14.45,14.45,0,0,0,3.29,10,24.62,24.62,0,0,0-14,10.44,17.7,17.7,0,0,0-1,1.93c-9.92,3.5-19,10.48-19.9,21.69a17.6,17.6,0,0,0,3.52,13c5.13,6.75,15,10,22.83,11.67a18.74,18.74,0,0,0,7.75,6.63A217.2,217.2,0,0,1,289.64,433c-8.63,23.34-12.16,29.66-13.28,31.37a95.52,95.52,0,0,1-23.18,25.37,109.56,109.56,0,0,1-27.56,14.45c-30.76,11.67-42.41,18-48,26.53-4.67,7-9.06,29.11-9.06,34.57v4.67l3.29,3.41c3.46,3.52,5.58,3.52,14.59,3.52H538.59a11.79,11.79,0,0,0,12.16-11l-1.45-11.23c-1.63-8.49-4.46-19.39-7.47-24-5.58-8.54-17.22-15-48-26.53a109.51,109.51,0,0,1-27.63-14.5,97.12,97.12,0,0,1-23.6-26.21v-.14l-3.22-6.44h-.26c-2-4.41-5.13-12-9.89-25.07a213,213,0,0,1-11.79-51.35,18.63,18.63,0,0,0,7.77-6.65c7.87-1.61,17.7-4.9,22.83-11.67a17.42,17.42,0,0,0,3.52-13c-.86-11.21-10-18.19-19.9-21.69a13.61,13.61,0,0,0-1-1.93,24.66,24.66,0,0,0-14-10.44,14.45,14.45,0,0,0,3.29-10,14.22,14.22,0,0,0-2.48-7.5c21.24-15.77,33.26-40.7,33.26-69.62A81.7,81.7,0,0,0,424.41,167c-16.67-15.33-39.68-23.78-64.66-23.78Z"/></svg>