<svg id="Artwork" xmlns="http://www.w3.org/2000/svg" viewBox="0 0 720 720"><defs><style>.cls-1{fill:#fff;}.cls-2{fill:#231f20;}</style></defs><path class="cls-1" d="M425.87,581.69h-239c-8.64,0-8.64,0-10.34-1.72l-1.71-1.71v-2.33c0-4.67,4.3-25.54,8.1-31.37,4.18-6.44,13.86-12.07,36.18-20.84a18.78,18.78,0,0,1-.73-5.21,19.33,19.33,0,0,1,19.31-19.3h1.61c1-8.17,2.07-16,2.54-19.28l-4.81-11.32C227.72,447,223.61,440,209,422.37c-5.78-7-15.63-19.53-16.54-23.59-.56-2.69-5.84-45-9.34-74.25a278.72,278.72,0,0,0-5.81-29.62c-1.29-5.43-2.52-10.62-3.39-15.42a40.59,40.59,0,0,1,2-81.11h2.69A40.68,40.68,0,0,1,200.9,271l3,6.28C226,323.69,240,349.6,247.81,362.44c.75-12.72,1.89-32.68,3.08-55.13,1.64-30.79,3.18-58,4-70.68a40.63,40.63,0,0,1,8.8-80.31h2.57a40.59,40.59,0,0,1,16.34,76.35l14.49,41.54c12.6,36.3,21.17,60.87,26.44,75.72,4.06-22,11.11-61.29,19.52-109.26l4-23.34a40.59,40.59,0,0,1,13-79.05h5.18v.37a40.59,40.59,0,0,1,7.89,78.7l1.56,8.8c11.21,63.7,18.18,102.7,22,123.54,5.32-14.89,14-39.51,26.44-75.53l13.75-39.51a40.59,40.59,0,0,1,19.63-76.09h2.71a40.94,40.94,0,0,1,37.9,39.1,40.52,40.52,0,0,1-31.53,41c.54,9.34,4.48,77.72,4.48,77.72l2.47,43.09L481,342.08c5.14-10.45,12.28-23.17,19.19-35.5s13.09-23.34,16.85-31.29l2.33-4.67a40.59,40.59,0,0,1,22.53-72.57h2.33a40.57,40.57,0,0,1,2.13,81.09c-.89,4.66-2.13,9.85-3.41,15.19a259.55,259.55,0,0,0-5.79,29c-3.45,28-8.87,71-9.5,74.24-1,4.95-13,20.26-18.11,26.61a224,224,0,0,0-17.62,24.13l-.56,1.29c-1.61,3.75-4.86,11.27-7.75,17.92l-5.28,12.18c.4,3.25,1.31,10.86,1.89,19.17h2.34a19.33,19.33,0,0,1,18.67,24.48c22.36,8.78,32.09,14.42,36.27,20.87,3.73,5.74,8,26.72,8,31.36v.35c-.32,5.47-5.58,5.49-8.1,5.49H425.87Zm-200.32-42.8a2.12,2.12,0,0,0,0,4.22H494.87a2.12,2.12,0,0,0,.44-4.22,1.62,1.62,0,0,0-.44,0Zm12.25-22.64a2.13,2.13,0,0,0,0,4.25H482.64a2.13,2.13,0,0,0,0-4.25Z"/><path class="cls-2" d="M360.15,144.25h0a34.73,34.73,0,0,1,6.35,68.9l2.52,14c15.35,87.31,25.34,142.93,25.81,143.38h0c.77,0,5.93-14.36,33.84-94.51l15.46-44.34a34.78,34.78,0,0,1,12.39-67.22h2.33a34.75,34.75,0,0,1,.63,69.29v.47c.56,9.48,2.71,46.68,4.67,82.55l3.74,65.36,18.32-37.35c10.06-20.51,28.33-50.6,36.06-66.87l4.43-9.1a34.78,34.78,0,0,1,15.38-64.77h2a34.75,34.75,0,1,1,1.8,69.48q-.9,0-1.8,0a18.83,18.83,0,0,1-2.82-.14c-1.71,13-7.68,30.35-10,49.34-4.67,38.24-9,71.47-9.34,73.81S513.77,409.7,505,420.65s-17.13,22.47-18.42,25.48-5,11.67-8.31,19.21L472.32,479s1.73,13,2.33,25.53v.3h7.8A13.46,13.46,0,0,1,493,526.63c24.74,9.34,35.69,15.17,39.4,21,2.87,4.41,7,24.11,7,28.19H180.55c0-4.08,4.29-23.78,7.16-28.19,3.71-5.72,14.64-11.46,39.31-20.87A13.47,13.47,0,0,1,237.57,505h6.81c1.35-12.44,3.36-25.88,3.36-25.88l-5.46-12.84c-9.48-22.1-13.77-29.34-28.78-47.66-8-9.78-14.94-19.28-15.36-21.15s-4.66-35-9.33-73.68c-2.34-19.3-8.33-37.14-10-50.28a22.18,22.18,0,0,1-2.94.14,34.75,34.75,0,1,1-1.8-69.48h4.14a34.83,34.83,0,0,1,15.19,64.75l5.11,10.8c34,71.38,50.7,98,53.68,98,.26,0,.42-.23.47-.68.26-2.8,2.1-34,4-69.48,1.8-34.12,3.67-67.15,4.32-76a34.8,34.8,0,0,1,2.61-69.48h2.34a34.75,34.75,0,0,1,9.5,67.38l16.33,46.68c26.92,77.51,33,94.64,33.75,94.64h0c.54-.54,11-57.69,23.34-129.07l4.91-28.54a34.76,34.76,0,0,1,6.34-68.93M237.66,526.33H482.5a8,8,0,0,0,0-15.92H237.75a8,8,0,0,0,0,15.92M225.5,549H494.82a8,8,0,1,0,.86-15.9H225.5a8,8,0,0,0,0,15.9M360.15,132.58a46.42,46.42,0,0,0-19.56,88.55l-3.2,18.68c-6.37,36.38-11.67,66-15.54,87.55-5.11-14.62-11.53-33.12-19.12-55l-13-37.09a46.44,46.44,0,0,0-23.11-84.72h-2.94A46.47,46.47,0,0,0,248.82,241c-.87,14-2.34,38.65-3.69,66.06-.68,12.9-1.36,25-1.94,35.4-7.65-14-18.67-35.43-34-67.68l-1.08-2.34a46.49,46.49,0,0,0-29-79.89H176a46.4,46.4,0,0,0-7,92.31c.77,3.66,1.68,7.47,2.59,11.39a264.67,264.67,0,0,1,5.7,29c0,.72,8.65,70.74,9.49,74.69.43,1.89,1.38,6.09,17.74,26.09,14.19,17.32,18,23.6,27.08,44.86l4.18,9.8c-.42,3-1.08,7.66-1.75,12.91a25.19,25.19,0,0,0-21.55,24.88V520c-20.75,8.42-29.9,14.19-34.54,21.33s-9.06,29.11-9.06,34.57v4.67l3.34,3.38c3.43,3.5,5.35,3.5,14.54,3.5H539a11.82,11.82,0,0,0,12.16-11l-1.45-11.23c-1.66-8.49-4.46-19.39-7.49-24-4.67-7.16-13.82-12.93-34.66-21.38v-1.47a25.17,25.17,0,0,0-22-24.95c-.44-5.18-1-9.75-1.28-12.65l4.67-10.71c3-7,6.46-15,8-18.49l.26-.6A238.92,238.92,0,0,1,514,428.07c17.92-22.24,18.93-27.24,19.3-29.13.72-3.62,6.58-50.41,9.57-74.69a262.45,262.45,0,0,1,5.67-28.33c.94-3.85,1.85-7.59,2.62-11.18a46.4,46.4,0,0,0-7-92.29h-2.66a46.39,46.39,0,0,0-43.55,42.71,47,47,0,0,0,14.17,37.14l-.28.56h0c-3.67,7.75-10,19-16.67,30.95-6.39,11.41-13,23.17-18.06,33.23l-1.19-21-1.64-28.25c-1.05-18-2-34.38-2.59-44.78a46.38,46.38,0,0,0,31.28-45.54,46.86,46.86,0,0,0-43.34-44.72h-3.11a46.4,46.4,0,0,0-26.65,84.35l-12.23,35.15c-7.84,22.55-14.17,40.71-19.12,54.8-4.06-22.68-10-55.83-18.06-101.88l-.73-4.15a46.42,46.42,0,0,0-9-87.29l-.11-1.22H360Z"/></svg>